<svg width="30" height="30" viewBox="0 0 30 30" fill="none" xmlns="http://www.w3.org/2000/svg">
<g clip-path="url(#clip0_388_7889)">
<path d="M11.707 15.745C11.9313 16.2745 12.1406 16.7368 12.2944 17.0323L12.6906 17.3038C12.7737 17.2624 12.8299 17.2328 12.9155 17.1966C12.9371 17.1871 12.9615 17.1854 12.9842 17.1919C13.007 17.1984 13.0268 17.2127 13.0401 17.2323C13.1197 17.3251 13.1972 17.4231 13.2938 17.5262L13.3204 17.5544C13.3375 17.5556 13.3545 17.5567 13.3705 17.5576C13.4507 17.4992 13.5356 17.4476 13.6243 17.4032C13.6281 17.4559 13.6348 17.5116 13.6429 17.5687C13.8573 17.4308 14.0441 17.2878 14.0848 17.1872C14.1447 17.0384 14.1421 16.8424 14.141 16.6695V16.6496C13.8274 16.5051 13.552 16.2892 13.3369 16.0191C13.1034 15.7325 12.9331 15.3997 12.8372 15.0427L12.7386 15.0273C12.6277 15.0088 12.5235 14.9618 12.4361 14.891C12.3286 14.7995 12.2421 14.686 12.1824 14.558C12.056 14.3049 12.0015 14.0219 12.025 13.74C12.0283 13.6679 12.0466 13.5974 12.0789 13.5328C12.1067 13.4861 12.1447 13.4462 12.19 13.416C12.2353 13.3859 12.2868 13.3663 12.3407 13.3587C12.3915 13.3514 12.4432 13.3541 12.4929 13.3669C12.5426 13.3797 12.5893 13.4021 12.6303 13.433C12.8167 13.3573 13.3371 13.1178 13.476 13.0358C13.7363 12.8842 13.9848 12.7132 14.2196 12.5245L14.727 12.4669C15.3831 12.2544 16.1199 11.8004 16.451 11.3957C16.521 11.7717 16.6287 12.1444 17.0056 12.6793C17.1889 12.9394 17.4549 13.2645 17.8269 13.449C17.8689 13.4127 17.9181 13.3857 17.9714 13.3702C18.0246 13.3546 18.0807 13.3507 18.1356 13.3587C18.1895 13.3663 18.241 13.3859 18.2863 13.416C18.3316 13.4462 18.3696 13.4861 18.3975 13.5328C18.4298 13.5974 18.4481 13.6679 18.4513 13.74C18.4749 14.0219 18.4204 14.3049 18.2939 14.558C18.2343 14.686 18.1478 14.7996 18.0402 14.891C17.9529 14.9618 17.8487 15.0088 17.7378 15.0273L17.6859 15.035C17.6612 15.1278 17.6333 15.206 17.6196 15.2476C17.5292 15.4928 17.0129 16.3572 16.3699 16.6379C16.3689 16.8178 16.3622 17.0292 16.4264 17.1865C16.4668 17.2864 16.6371 17.4283 16.8316 17.5654V17.5634C16.8363 17.4772 16.8375 17.3943 16.834 17.3174C16.9353 17.369 17.0314 17.4304 17.1207 17.5008L17.2136 17.3522C17.3344 17.1913 17.4728 17.0443 17.6262 16.914C17.6446 16.8954 17.6677 16.8821 17.6931 16.8755C17.7269 16.8749 17.7602 16.8839 17.7891 16.9014C17.851 16.9283 17.9182 16.9404 17.9856 16.9368L18.1904 16.4794C18.3629 16.1166 18.5317 15.7136 18.6961 15.2928L18.6905 15.2697C18.5902 14.701 18.5386 14.1249 18.5361 13.5474C18.5278 13.102 18.5195 12.5538 18.5033 12.327C18.4473 11.541 18.0958 10.6632 17.5901 10.1754C17.3715 9.9644 17.308 9.86598 17.07 9.73712L16.4989 9.45833C16.1474 9.32293 15.8205 9.25781 15.2036 9.25781C14.1922 9.25781 13.292 9.77879 12.8926 10.1612C12.2299 10.7957 11.8095 11.9545 11.8623 13.5525C11.8703 14.2257 11.8294 14.8985 11.7397 15.5657C11.7397 15.5657 11.7238 15.6584 11.707 15.745Z" fill="#957F6E"/>
<path d="M14.8322 18.813C14.5501 18.7821 14.2707 18.7307 13.9961 18.6592L13.9258 18.6497C14.3281 19.8312 15.0189 21.2552 15.3167 22.0157C15.3332 22.0595 15.3539 22.1139 15.3763 22.1756C15.6158 21.5473 16.3187 19.9403 16.6542 18.6074L16.5826 18.6223C16.196 18.776 15.6329 18.8385 15.2371 18.8375C15.1018 18.8364 14.9666 18.8282 14.8322 18.813Z" fill="white"/>
<path d="M21.8589 10.3886C21.4458 10.242 21.0048 10.1051 20.7162 10.0305C20.6849 10.0214 20.6513 10.0238 20.6217 10.0374C20.592 10.051 20.5683 10.0749 20.5548 10.1046C20.2472 10.8433 19.9862 11.6961 19.4931 13.0976C19.0945 14.2302 18.6557 15.501 18.19 16.4806L17.9851 16.938C17.9178 16.9415 17.8506 16.9294 17.7887 16.9025C17.7598 16.885 17.7265 16.8761 17.6927 16.8768C17.6673 16.8832 17.6442 16.8965 17.6258 16.9152C17.4724 17.0455 17.334 17.1925 17.2132 17.3535L17.1203 17.502C17.0309 17.4317 16.9349 17.3703 16.8335 17.3186C16.8934 18.6395 15.6979 21.3297 15.3735 22.1823C15.3524 22.1187 15.333 22.0622 15.3159 22.0171C14.8987 20.9514 13.7096 18.5829 13.6244 17.404C13.5253 17.4536 13.4309 17.5119 13.3423 17.5784L13.2939 17.5269C13.1973 17.4238 13.1197 17.3259 13.0402 17.2331C13.0269 17.2135 13.0071 17.1992 12.9843 17.1927C12.9616 17.1862 12.9372 17.1878 12.9156 17.1974C12.83 17.2336 12.7738 17.2631 12.6907 17.3046L12.2945 17.0331C11.9244 16.3227 11.2329 14.6432 10.7848 13.3927C10.2382 11.8677 9.83075 10.9116 9.53604 10.0683C9.52985 10.0512 9.52031 10.0355 9.50798 10.0222C9.49564 10.0089 9.48076 9.99814 9.46422 9.99065C9.44768 9.98315 9.42981 9.97905 9.41165 9.97856C9.3935 9.97808 9.37543 9.98124 9.35851 9.98784C8.74521 10.2177 8.14464 10.4803 7.55938 10.7743C7.53075 10.7886 7.50811 10.8126 7.49545 10.842C7.48279 10.8714 7.48092 10.9044 7.49018 10.935C7.7479 11.7354 8.0802 12.6202 8.90581 14.9056C9.40242 16.2835 10.0087 17.997 10.3205 18.8084C10.5369 19.373 11.676 22.3194 11.6931 23.3045C11.6247 24.307 10.7935 27.024 10.6053 28.0237C10.5884 28.1137 10.5752 28.2291 10.654 28.2741C10.6829 28.2878 10.7144 28.2946 10.7463 28.2943C11.1165 28.318 11.6459 28.3416 12.0165 28.3653C12.4254 28.3914 12.9426 28.4162 13.3328 28.2895C14.1641 28.0196 14.6398 27.0477 15.0307 26.2577C15.0555 26.1789 15.0802 26.0942 15.1044 26.0055L15.1387 26.0675C15.2606 26.3624 15.5709 27.0978 15.7538 27.4637C15.847 27.6447 15.9748 27.8057 16.13 27.9375C16.2877 28.0519 16.4712 28.1257 16.6642 28.1523C17.6994 28.359 18.7088 28.2006 19.7521 28.0316C19.7961 28.0285 19.8385 28.0139 19.8752 27.9893C19.9031 27.9607 19.9212 27.924 19.9267 27.8844C19.9322 27.8448 19.9249 27.8045 19.9059 27.7694C19.7887 26.9641 19.135 24.6457 18.8456 22.8839C18.9722 21.591 19.7906 19.1443 19.9956 18.5793C20.3442 17.5577 20.9757 15.4769 21.4191 14.0737C21.7837 12.9197 21.9628 12.6237 22.5421 10.7907C22.5522 10.7577 22.5496 10.7221 22.5348 10.6909C22.52 10.6597 22.494 10.6351 22.4621 10.6221C22.2869 10.546 22.0768 10.4659 21.8589 10.3886Z" fill="#BDBDBD"/>
<path d="M12.4369 14.8912C12.5243 14.962 12.6285 15.009 12.7394 15.0275L12.838 15.0429C12.9339 15.3999 13.1042 15.7327 13.3377 16.0193C13.5528 16.2894 13.8282 16.5053 14.1418 16.6498V16.6697C14.1429 16.8426 14.1455 17.0388 14.0855 17.1874C14.0448 17.2881 13.8579 17.4312 13.6433 17.5692C13.7009 17.9288 13.788 18.2831 13.9036 18.6284L13.9959 18.6602C14.4013 18.7673 14.8177 18.8271 15.2369 18.8385C15.6326 18.8395 16.1957 18.7769 16.5824 18.6232L16.6187 18.6083C16.6681 18.4491 16.7136 18.2973 16.7546 18.1547C16.7931 17.9604 16.8188 17.7639 16.8315 17.5662C16.637 17.4291 16.4668 17.2872 16.4263 17.1872C16.3624 17.03 16.3689 16.8186 16.3698 16.6387C17.0128 16.358 17.5292 15.4936 17.6195 15.2483C17.6332 15.2068 17.6611 15.1286 17.6859 15.0357L17.7377 15.0281C17.8486 15.0095 17.9528 14.9626 18.0401 14.8917C18.1477 14.8003 18.2342 14.6868 18.2938 14.5588C18.4203 14.3057 18.4747 14.0227 18.4512 13.7407C18.448 13.6687 18.4296 13.5981 18.3974 13.5336C18.3695 13.4869 18.3315 13.447 18.2862 13.4168C18.2408 13.3867 18.1893 13.3671 18.1354 13.3595C18.0805 13.3514 18.0245 13.3553 17.9712 13.3709C17.918 13.3865 17.8687 13.4134 17.8268 13.4498C17.4548 13.2653 17.1886 12.9402 17.0055 12.6801C16.6288 12.1451 16.5211 11.7728 16.4508 11.3965C16.1198 11.8012 15.383 12.2551 14.7269 12.4677L14.2195 12.5253C13.9847 12.714 13.7361 12.8849 13.4759 13.0366C13.3375 13.1186 12.8169 13.3581 12.6301 13.4338C12.5892 13.4029 12.5425 13.3804 12.4928 13.3677C12.4431 13.3549 12.3914 13.3521 12.3406 13.3595C12.2867 13.3671 12.2352 13.3867 12.1899 13.4168C12.1446 13.447 12.1066 13.4869 12.0787 13.5336C12.0464 13.5981 12.0281 13.6687 12.0249 13.7407C12.0013 14.0227 12.0557 14.3057 12.1822 14.5588C12.2422 14.6867 12.3291 14.8 12.4369 14.8912Z" fill="white"/>
<path d="M17.8261 13.4498C17.868 13.4134 17.9173 13.3865 17.9705 13.3709C18.0238 13.3553 18.0798 13.3514 18.1347 13.3595C18.1886 13.3671 18.2401 13.3867 18.2854 13.4168C18.3308 13.447 18.3688 13.4869 18.3967 13.5336C18.4289 13.5981 18.4472 13.6687 18.4505 13.7407C18.474 14.0227 18.4196 14.3057 18.2931 14.5588C18.2335 14.6868 18.1469 14.8003 18.0394 14.8917C17.9521 14.9626 17.8479 15.0095 17.737 15.0281L17.6852 15.0357C17.6604 15.1286 17.6325 15.2068 17.6188 15.2483C17.5285 15.4936 17.0121 16.358 16.3691 16.6387C16.3682 16.8186 16.3614 17.03 16.4256 17.1872C16.4661 17.2872 16.6362 17.4293 16.8311 17.5662C16.8046 17.9128 16.7464 18.2561 16.6571 18.592L16.6179 18.6082L16.5816 18.623C16.195 18.7768 15.6319 18.8393 15.2361 18.8383C14.817 18.8272 14.4007 18.7676 13.9953 18.6607L13.9025 18.6287C13.7868 18.2835 13.6996 17.9294 13.6418 17.57C13.8571 17.4321 14.0438 17.2887 14.0846 17.1879C14.1445 17.0392 14.1419 16.8432 14.1409 16.6703V16.6503C13.8273 16.5059 13.5519 16.29 13.3368 16.0199C13.1033 15.7332 12.933 15.4005 12.837 15.0434L12.7384 15.0281C12.6275 15.0095 12.5233 14.9625 12.436 14.8917C12.3284 14.8003 12.2419 14.6868 12.1823 14.5588C12.0558 14.3057 12.0014 14.0227 12.0249 13.7407C12.0281 13.6687 12.0464 13.5981 12.0787 13.5336C12.1066 13.4869 12.1445 13.447 12.1899 13.4168C12.2352 13.3867 12.2867 13.3671 12.3406 13.3595C12.3913 13.3521 12.4431 13.3549 12.4928 13.3677C12.5425 13.3804 12.5891 13.4029 12.6301 13.4338C12.8166 13.3581 13.3369 13.1186 13.4759 13.0366C13.7361 12.885 13.9847 12.714 14.2194 12.5253L14.7269 12.4677C15.3829 12.2551 16.1197 11.8012 16.4508 11.3965C16.5208 11.7725 16.6286 12.1451 17.0055 12.6801C17.1887 12.9402 17.4547 13.2653 17.8268 13.4498" fill="white"/>
<path d="M20.9193 9.47768C20.8917 9.56226 20.8018 9.82544 20.7496 9.97744L20.7305 10.0332C21.3071 10.1905 21.8739 10.3816 22.428 10.6057C22.437 10.5739 22.4434 10.5523 22.4434 10.5523C22.494 10.3879 22.587 10.1055 22.6099 10.035C22.6151 10.0171 22.6132 9.99792 22.6046 9.98143C22.596 9.96493 22.5814 9.9524 22.5637 9.94646C22.2347 9.81491 21.2825 9.48084 21.0152 9.41525C20.997 9.40977 20.9775 9.41151 20.9606 9.4201C20.9436 9.4287 20.9307 9.44349 20.9245 9.46138C20.9232 9.46577 20.9215 9.47123 20.9193 9.47768Z" fill="white"/>
<path d="M9.08478 9.50864C9.07464 9.48003 9.06649 9.45728 9.06172 9.44359C9.05497 9.42582 9.04155 9.41138 9.02432 9.40334C9.0071 9.3953 8.98741 9.39429 8.96945 9.40053C8.70458 9.4765 7.77618 9.86677 7.45218 10.0106C7.43491 10.0177 7.42094 10.031 7.41309 10.0479C7.40525 10.0648 7.4041 10.0841 7.40989 10.1018C7.43811 10.1795 7.53368 10.458 7.58243 10.6127L7.62264 10.7406C8.08119 10.5049 8.78431 10.205 9.26393 10.0222L9.22172 9.90014C9.1872 9.80003 9.12223 9.61451 9.08478 9.50864Z" fill="white"/>
<path d="M18.8613 28.269C18.9202 28.7942 18.9518 29.3221 18.9561 29.8506C18.9591 30.0483 19.2667 30.0489 19.2637 29.8506C19.2594 29.3221 19.2277 28.7942 19.1689 28.269C19.1677 28.2286 19.1511 28.1902 19.1225 28.1616C19.0939 28.133 19.0555 28.1164 19.0151 28.1152C18.9744 28.1155 18.9354 28.1318 18.9066 28.1605C18.8778 28.1893 18.8616 28.2283 18.8613 28.269Z" fill="#211715"/>
<path d="M12.2588 29.8522C12.2742 29.3868 12.3006 28.9219 12.3491 28.4585C12.3488 28.4178 12.3325 28.3788 12.3037 28.35C12.275 28.3213 12.236 28.305 12.1953 28.3047C12.1548 28.3056 12.1162 28.3221 12.0876 28.3507C12.0589 28.3794 12.0424 28.418 12.0415 28.4585C11.9931 28.9216 11.9665 29.3868 11.9513 29.8522C11.9448 30.0501 12.2524 30.0499 12.2588 29.8522Z" fill="#211715"/>
<path d="M17.9353 13.5586C17.959 13.5396 17.9864 13.5255 18.0157 13.5173C18.045 13.5091 18.0756 13.507 18.1058 13.5109C18.136 13.5149 18.165 13.5249 18.1912 13.5404C18.2174 13.5559 18.2402 13.5765 18.2582 13.6011C18.2929 13.6724 18.3082 13.7516 18.3025 13.8307C18.3056 13.9221 18.2992 14.0135 18.2835 14.1035C18.2242 14.4281 18.0571 14.8153 17.6969 14.8801C17.6577 14.8912 17.6244 14.9172 17.6043 14.9526C17.5841 14.988 17.5787 15.0299 17.5892 15.0692C17.6008 15.1081 17.6269 15.141 17.6621 15.161C17.6974 15.1811 17.739 15.1868 17.7783 15.1769C18.311 15.0813 18.5648 14.4788 18.605 13.996C18.6253 13.7514 18.6083 13.4678 18.3962 13.3087C18.2963 13.2361 18.1745 13.1997 18.0512 13.2057C17.9278 13.2117 17.8101 13.2596 17.7177 13.3416C17.6891 13.3706 17.6731 13.4096 17.6731 13.4503C17.6731 13.491 17.6891 13.53 17.7177 13.559C17.7469 13.5871 17.7859 13.6027 17.8264 13.6027C17.8669 13.6027 17.9059 13.5871 17.9351 13.559L17.9353 13.5586Z" fill="#211715"/>
<path d="M17.5802 14.7397C17.5703 14.8755 17.5416 15.0092 17.4949 15.1371C17.4872 15.1601 17.4795 15.1832 17.4718 15.2067C17.465 15.2266 17.4648 15.2252 17.4727 15.2067C17.4614 15.2337 17.4485 15.26 17.4354 15.2862C17.352 15.4489 17.2552 15.6045 17.146 15.7512C16.8954 16.094 16.5558 16.4564 16.1274 16.5568C15.9351 16.6019 16.0163 16.8985 16.2092 16.8533C16.7115 16.7356 17.1019 16.325 17.3978 15.9251C17.6555 15.5772 17.8701 15.1829 17.888 14.7401C17.8957 14.5422 17.5881 14.5425 17.5804 14.7401L17.5802 14.7397Z" fill="#211715"/>
<path d="M12.759 13.3415C12.6665 13.2596 12.5488 13.2117 12.4254 13.2057C12.3021 13.1997 12.1803 13.236 12.0804 13.3086C11.8683 13.4675 11.8514 13.7516 11.8717 13.9959C11.9118 14.4787 12.1656 15.0812 12.6983 15.1768C12.7376 15.1865 12.7791 15.1807 12.8143 15.1607C12.8495 15.1407 12.8757 15.1079 12.8874 15.0692C12.8979 15.0298 12.8925 14.9879 12.8724 14.9525C12.8522 14.9171 12.819 14.8911 12.7798 14.88C12.4196 14.8154 12.2524 14.4282 12.1932 14.1035C12.1784 14.0184 12.1719 13.932 12.1739 13.8457C12.1683 13.7656 12.1815 13.6853 12.2124 13.6112C12.2294 13.5849 12.2519 13.5624 12.2782 13.5452C12.3045 13.5281 12.3341 13.5166 12.3652 13.5117C12.3962 13.5067 12.4279 13.5083 12.4582 13.5164C12.4886 13.5245 12.5169 13.5388 12.5414 13.5586C12.5707 13.5864 12.6097 13.6019 12.6501 13.6019C12.6906 13.6019 12.7295 13.5864 12.7589 13.5586C12.7874 13.5296 12.8034 13.4905 12.8034 13.4499C12.8034 13.4092 12.7874 13.3701 12.7589 13.3411L12.759 13.3415Z" fill="#211715"/>
<path d="M12.6066 14.7141C12.688 15.2431 12.9105 15.7404 13.2506 16.1537C13.6057 16.5699 14.0743 16.8724 14.6252 16.9313C14.6659 16.9311 14.7049 16.9148 14.7337 16.886C14.7624 16.8572 14.7787 16.8182 14.779 16.7775C14.7781 16.737 14.7616 16.6985 14.7329 16.6698C14.7043 16.6412 14.6657 16.6247 14.6252 16.6238C14.1471 16.5726 13.7462 16.2711 13.4468 15.9111C13.1443 15.5475 12.9835 15.0931 12.9031 14.6324C12.892 14.5932 12.866 14.56 12.8306 14.5398C12.7952 14.5197 12.7533 14.5143 12.714 14.5248C12.6751 14.5363 12.6422 14.5625 12.6221 14.5977C12.6021 14.633 12.5964 14.6746 12.6063 14.7139L12.6066 14.7141Z" fill="#211715"/>
<path d="M16.9937 9.87148C17.1402 9.95886 17.2731 10.0671 17.3884 10.1928C17.521 10.3183 17.6423 10.4553 17.7507 10.6023C17.9739 10.931 18.1388 11.2958 18.2381 11.6805C18.3221 12.0215 18.3653 12.3713 18.3668 12.7224C18.3787 13.1607 18.3764 13.5989 18.3988 14.0367C18.4196 14.4648 18.4679 14.8911 18.5434 15.313C18.5788 15.5075 18.8753 15.4251 18.8401 15.2313C18.6908 14.411 18.6968 13.5823 18.6751 12.7519C18.6741 12.3739 18.6296 11.9973 18.5426 11.6294C18.4425 11.2315 18.2783 10.8526 18.0566 10.5074C17.9316 10.3232 17.7878 10.1524 17.6276 9.99781C17.4875 9.84529 17.3263 9.71354 17.1489 9.60653C16.9756 9.51058 16.8203 9.77568 16.9937 9.8721V9.87148Z" fill="#211715"/>
<path d="M11.8894 15.6071C11.979 14.9578 12.0217 14.3028 12.0173 13.6472C12.0097 13.2824 12.0205 12.9173 12.0497 12.5535C12.0817 12.2395 12.1425 11.9291 12.2311 11.6262C12.3717 11.1508 12.5952 10.6863 12.9442 10.3281C13.3339 9.92832 13.8786 9.66184 14.4127 9.51929C14.8015 9.42245 15.2036 9.39001 15.603 9.42326C15.896 9.4407 16.1846 9.50267 16.4589 9.60702C16.4983 9.61752 16.5402 9.61212 16.5756 9.59198C16.611 9.57184 16.6371 9.53857 16.6481 9.49938C16.6581 9.46005 16.6524 9.41842 16.6323 9.38318C16.6123 9.34793 16.5794 9.3218 16.5405 9.31024C15.9285 9.09226 15.27 9.03923 14.631 9.15646C13.9935 9.26779 13.3958 9.54241 12.896 9.95354C11.9739 10.7224 11.7174 12.0672 11.7054 13.205C11.6972 13.981 11.7069 14.7549 11.5923 15.5251C11.5828 15.5644 11.5887 15.6059 11.6087 15.641C11.6287 15.6761 11.6613 15.7023 11.7 15.7142C11.7393 15.7248 11.7813 15.7194 11.8167 15.6992C11.8521 15.6791 11.8781 15.6458 11.8892 15.6066L11.8894 15.6071Z" fill="#211715"/>
<path d="M13.9546 18.8078C14.3936 18.9293 14.847 18.991 15.3025 18.9912C15.7521 18.9956 16.1989 18.921 16.6227 18.7708C16.6615 18.759 16.6942 18.7328 16.7142 18.6977C16.7342 18.6625 16.74 18.621 16.7304 18.5817C16.7194 18.5425 16.6933 18.5092 16.6579 18.489C16.6225 18.4689 16.5806 18.4635 16.5412 18.474C15.7538 18.7801 14.8388 18.7226 14.0366 18.511C13.845 18.4604 13.7633 18.757 13.9548 18.8076L13.9546 18.8078Z" fill="#211715"/>
<path d="M14.8982 22.7474C14.8083 22.7202 14.7121 22.7224 14.6236 22.7537C14.5351 22.785 14.4589 22.8438 14.4061 22.9215C14.359 23.0033 14.3416 23.0989 14.357 23.192C14.3725 23.2852 14.4197 23.3701 14.4907 23.4323C14.5468 23.4856 14.6155 23.5238 14.6905 23.5431C14.7654 23.5624 14.844 23.5623 14.9189 23.5427C14.9967 23.5148 15.0642 23.464 15.1126 23.397C15.161 23.33 15.1881 23.25 15.1903 23.1674C15.1943 23.0751 15.168 22.9841 15.1153 22.9082C15.0626 22.8324 14.9866 22.7759 14.8987 22.7474C14.8594 22.7369 14.8174 22.7422 14.782 22.7624C14.7466 22.7825 14.7206 22.8158 14.7096 22.8551C14.6998 22.8944 14.7055 22.936 14.7255 22.9712C14.7456 23.0064 14.7784 23.0326 14.8172 23.0442C14.8249 23.0469 14.8319 23.0497 14.8392 23.0527L14.8024 23.0374C14.8126 23.0419 14.8224 23.0471 14.8319 23.0527C14.8369 23.0557 14.8416 23.0591 14.8465 23.0622C14.8643 23.0732 14.8311 23.0518 14.8311 23.0501C14.8311 23.0508 14.8671 23.086 14.8708 23.09C14.8814 23.1017 14.8484 23.0584 14.8562 23.0712C14.8582 23.0745 14.8608 23.0777 14.863 23.081C14.8664 23.0861 14.8696 23.0915 14.8727 23.0969C14.8771 23.1043 14.881 23.112 14.8845 23.1199L14.8691 23.0832C14.8777 23.105 14.8835 23.1279 14.8863 23.1512L14.8809 23.1103C14.8841 23.1384 14.8839 23.1668 14.8803 23.1948L14.8858 23.154C14.8822 23.1764 14.876 23.1982 14.8673 23.2191L14.8826 23.1824C14.8781 23.1931 14.873 23.2036 14.8673 23.2137C14.8644 23.2189 14.8614 23.2237 14.8583 23.2283C14.8402 23.2555 14.8752 23.2099 14.866 23.2191C14.8567 23.2284 14.8453 23.2393 14.8352 23.2495C14.8652 23.2187 14.8554 23.2341 14.8429 23.2418C14.8335 23.2474 14.8238 23.2524 14.8138 23.2567L14.8506 23.2413C14.8332 23.2482 14.8152 23.2531 14.7968 23.256L14.8376 23.2505C14.8154 23.253 14.7931 23.2528 14.771 23.2498L14.8118 23.2553C14.7854 23.251 14.7596 23.2436 14.7349 23.2333L14.7717 23.2487C14.7471 23.2381 14.7235 23.2252 14.7013 23.2102C14.6906 23.2031 14.6777 23.1877 14.7162 23.222C14.7127 23.219 14.7091 23.2162 14.7056 23.2131C14.6975 23.2059 14.6898 23.1982 14.6826 23.1901C14.6784 23.1855 14.6749 23.1803 14.6703 23.1757C14.701 23.2097 14.6862 23.1967 14.6789 23.1852C14.6712 23.1733 14.6646 23.1608 14.6589 23.1478L14.6743 23.1845C14.6647 23.1613 14.6581 23.137 14.6547 23.1122L14.6601 23.1531C14.6575 23.1309 14.6575 23.1085 14.6601 23.0863L14.6547 23.1272C14.6575 23.1092 14.6622 23.0916 14.6687 23.0747L14.6534 23.1114C14.6597 23.097 14.668 23.0848 14.6755 23.0711C14.6808 23.0616 14.6473 23.104 14.67 23.0788C14.6746 23.074 14.6793 23.0692 14.6841 23.0647C14.6943 23.0553 14.711 23.048 14.6736 23.0717C14.6793 23.068 14.6845 23.064 14.6902 23.0602C14.7037 23.0517 14.7178 23.0443 14.7324 23.0381L14.6957 23.0534C14.7213 23.0429 14.7481 23.0357 14.7755 23.032L14.7346 23.0374C14.7599 23.0344 14.7854 23.0344 14.8107 23.0374L14.7698 23.0319C14.7857 23.0344 14.8015 23.0381 14.8169 23.043C14.8562 23.0535 14.8981 23.0481 14.9335 23.0279C14.9689 23.0078 14.995 22.9745 15.006 22.9353C15.0156 22.8962 15.0097 22.8548 14.9896 22.8198C14.9696 22.7849 14.9368 22.7589 14.8982 22.7474Z" fill="#211715"/>
<path d="M13.4028 17.4167C13.351 17.3612 13.3013 17.3038 13.2524 17.2456C13.2137 17.1921 13.1699 17.1424 13.1217 17.0972C13.0774 17.0581 13.021 17.0355 12.962 17.0332C12.9078 17.0361 12.8548 17.0509 12.807 17.0765C12.7412 17.1055 12.6773 17.138 12.613 17.1704C12.578 17.1911 12.5525 17.2248 12.5422 17.2642C12.5318 17.3036 12.5374 17.3455 12.5578 17.3807C12.5791 17.4152 12.6128 17.4402 12.652 17.4504C12.6911 17.4607 12.7328 17.4555 12.7682 17.4359C12.8231 17.4085 12.8777 17.3805 12.9335 17.355C12.9481 17.3483 12.9626 17.3417 12.9773 17.3354C12.9973 17.3271 12.9524 17.3459 12.9712 17.3391C12.99 17.3324 12.9364 17.3378 12.962 17.3407C12.9577 17.3402 12.9255 17.3331 12.9449 17.3398L12.9224 17.3306C12.9323 17.3369 12.9313 17.3356 12.9196 17.3269C12.8985 17.3084 12.9265 17.335 12.9314 17.3404C13.0174 17.4372 13.0967 17.5394 13.1851 17.6342C13.2141 17.6627 13.2531 17.6787 13.2938 17.6787C13.3345 17.6787 13.3735 17.6627 13.4025 17.6342C13.4306 17.605 13.4463 17.566 13.4463 17.5255C13.4463 17.4849 13.4306 17.446 13.4025 17.4167H13.4028Z" fill="#211715"/>
<path d="M17.347 17.4304C17.3628 17.4094 17.3947 17.3697 17.4222 17.3371C17.4546 17.2988 17.4882 17.2615 17.5228 17.225C17.5883 17.1523 17.6595 17.085 17.7356 17.0235C17.7202 17.0351 17.7404 17.0185 17.7424 17.0198L17.6856 17.0263L17.7017 17.0308C17.6826 17.0191 17.7347 17.0448 17.7304 17.043C17.7437 17.0487 17.757 17.0545 17.7705 17.0595C17.8203 17.0768 17.8721 17.0873 17.9247 17.0906C18.0352 17.0976 18.1454 17.0741 18.2434 17.0227C18.2784 17.0019 18.3039 16.9682 18.3142 16.9288C18.3245 16.8894 18.3189 16.8475 18.2985 16.8122C18.2773 16.7778 18.2436 16.7528 18.2044 16.7426C18.1652 16.7323 18.1236 16.7375 18.0882 16.7571C18.0651 16.7685 18.0893 16.7583 18.0751 16.7635C18.0654 16.7671 18.0556 16.7703 18.0456 16.7731C18.0331 16.7767 18.0205 16.7796 18.0078 16.7822C17.9981 16.7842 17.9858 16.7843 18.0025 16.7832C17.9766 16.7851 17.9506 16.7851 17.9247 16.7832C17.9415 16.7844 17.9291 16.7842 17.9194 16.7821C17.9067 16.7794 17.8942 16.7765 17.8817 16.7729C17.8693 16.7693 17.857 16.7652 17.8449 16.7603C17.8603 16.7664 17.8406 16.7579 17.8361 16.756C17.8026 16.7405 17.7671 16.7302 17.7307 16.7252C17.6915 16.7226 17.6522 16.7285 17.6155 16.7426C17.5788 16.7566 17.5456 16.7783 17.5181 16.8064C17.3551 16.9455 17.2085 17.1029 17.0814 17.2754C17.061 17.3106 17.0553 17.3525 17.0656 17.392C17.0759 17.4314 17.1014 17.4651 17.1366 17.4858C17.172 17.5052 17.2136 17.5103 17.2527 17.5C17.2919 17.4898 17.3256 17.4649 17.347 17.4306V17.4304Z" fill="#211715"/>
<path d="M14.8109 11.6623C14.5211 12.1055 14.1054 12.4514 13.6652 12.7382C13.3298 12.9481 12.9768 13.1285 12.6101 13.2773C12.5715 13.2892 12.5388 13.3154 12.5188 13.3505C12.4988 13.3857 12.493 13.4271 12.5025 13.4664C12.5135 13.5057 12.5395 13.539 12.5749 13.5591C12.6104 13.5793 12.6523 13.5847 12.6916 13.5741C13.0944 13.4143 13.4814 13.2174 13.8477 12.986C14.3227 12.6731 14.7626 12.2972 15.076 11.8178C15.1847 11.6516 14.9185 11.4973 14.8105 11.6625L14.8109 11.6623Z" fill="#211715"/>
<path d="M16.3338 11.2985C16.1295 11.5271 15.8905 11.7221 15.6255 11.8763C15.331 12.0604 15.0158 12.2091 14.6865 12.3194C14.4994 12.3809 14.5795 12.6779 14.7683 12.6159C15.1232 12.4981 15.463 12.339 15.7807 12.1419C16.0687 11.9748 16.3287 11.7636 16.5512 11.5159C16.5791 11.4866 16.5946 11.4476 16.5946 11.4072C16.5946 11.3667 16.5791 11.3278 16.5512 11.2985C16.5223 11.2699 16.4832 11.2539 16.4425 11.2539C16.4018 11.2539 16.3628 11.2699 16.3338 11.2985Z" fill="#211715"/>
<path d="M17.905 13.3168C17.5263 13.1239 17.2532 12.7886 17.0275 12.4368C16.8252 12.125 16.6837 11.7778 16.6106 11.4134C16.5716 11.2196 16.275 11.3016 16.3141 11.4952C16.3962 11.897 16.5547 12.2793 16.7809 12.6213C17.031 13.0043 17.3354 13.3713 17.7497 13.5824C17.9258 13.672 18.0816 13.4067 17.905 13.3168Z" fill="#211715"/>
<path d="M18.3226 16.5573C18.9133 15.3103 19.3477 13.9882 19.7988 12.6862C19.9894 12.1363 20.1727 11.5839 20.3662 11.035C20.4415 10.8214 20.5188 10.6085 20.6011 10.3975C20.6191 10.3514 20.6373 10.3055 20.6557 10.2598C20.6648 10.2372 20.6745 10.2149 20.6833 10.1922C20.7025 10.1424 20.6959 10.1832 20.6751 10.1776C20.7916 10.2084 20.9076 10.2411 21.0231 10.2756C21.3027 10.3592 21.5798 10.4503 21.8546 10.5488C21.9917 10.5979 22.1281 10.6488 22.2633 10.7026C22.283 10.7103 22.3936 10.7474 22.396 10.753C22.3845 10.7804 22.3744 10.8085 22.3658 10.837C22.3512 10.8831 22.3364 10.9293 22.3216 10.9754C22.1602 11.4796 21.9902 11.9809 21.8117 12.4793C21.6859 12.8281 21.5561 13.1753 21.4365 13.5263C21.2723 14.0083 21.1245 14.4962 20.9731 14.9825C20.6348 16.0701 20.3038 17.1607 19.9463 18.2425C19.9139 18.3406 19.881 18.4386 19.8477 18.5364C19.7838 18.7242 20.0807 18.8047 20.1443 18.6181C20.5111 17.5417 20.8383 16.4517 21.1759 15.3658C21.4571 14.461 21.7448 13.5621 22.0683 12.6714C22.2465 12.1806 22.4156 11.6867 22.5757 11.1897C22.603 11.1054 22.63 11.0208 22.6569 10.936C22.6945 10.8529 22.7069 10.7607 22.6927 10.6706C22.6503 10.5076 22.4833 10.4607 22.3452 10.4055C22.0592 10.2911 21.768 10.1895 21.4751 10.0941C21.3353 10.0485 21.1949 10.005 21.0539 9.96336C20.9337 9.91587 20.8078 9.88484 20.6793 9.87109C20.506 9.87109 20.4326 9.99757 20.375 10.1391C20.3335 10.2411 20.2932 10.3436 20.2543 10.4467C20.0672 10.9396 19.9006 11.4403 19.7308 11.9393C19.5008 12.6135 19.2661 13.2862 19.0269 13.9573C18.7877 14.629 18.5435 15.3003 18.26 15.9547C18.1948 16.1048 18.1273 16.2539 18.0574 16.4019C17.9729 16.5798 18.2382 16.736 18.3229 16.5571L18.3226 16.5573Z" fill="#211715"/>
<path d="M10.47 18.7678C10.0111 17.5735 9.59402 16.3626 9.16138 15.1587C8.76411 14.0533 8.35616 12.9521 7.96388 11.8449C7.90576 11.6809 7.84842 11.5165 7.79189 11.3519C7.76667 11.2781 7.74173 11.2042 7.71708 11.1302C7.69864 11.058 7.67537 10.9871 7.64742 10.918C7.6355 10.894 7.64511 10.8971 7.63773 10.9057C7.66412 10.8866 7.69323 10.8716 7.72407 10.8611C7.79071 10.827 7.85796 10.7937 7.92582 10.7611C8.07114 10.6912 8.21799 10.6242 8.36515 10.5588C8.65429 10.4307 8.94646 10.3092 9.24165 10.1945C9.2801 10.1796 9.36759 10.126 9.4075 10.1309C9.38735 10.1284 9.3942 10.1106 9.40219 10.1473C9.41102 10.1781 9.42175 10.2084 9.43433 10.2379C9.47534 10.3521 9.51709 10.4659 9.55958 10.5794C9.65323 10.8296 9.74964 11.0792 9.84613 11.3279C10.0939 11.968 10.3395 12.6089 10.573 13.2544C11.0104 14.4636 11.4707 15.6728 12.0256 16.8339C12.0698 16.9261 12.115 17.0184 12.1622 17.109C12.2534 17.2847 12.5189 17.1294 12.4277 16.9538C12.171 16.4594 11.9544 15.9429 11.7408 15.4289C11.4721 14.7817 11.2158 14.129 10.9768 13.4703C10.7294 12.7883 10.4754 12.1089 10.2147 11.432C10.1122 11.1672 10.0093 10.9027 9.90872 10.6371C9.86351 10.5177 9.81897 10.3981 9.77509 10.2782C9.73219 10.1605 9.70305 9.99693 9.6124 9.90682C9.48023 9.77542 9.32023 9.8357 9.17169 9.89306C9.02499 9.94944 8.87903 10.008 8.73382 10.0687C8.41374 10.2014 8.09566 10.3395 7.78312 10.4893C7.65649 10.5499 7.46635 10.6094 7.38447 10.729C7.30351 10.8474 7.33949 10.9649 7.37993 11.0883C7.43001 11.2412 7.48127 11.3936 7.5337 11.5455C7.88246 12.5553 8.25643 13.5568 8.61957 14.5614C9.09711 15.8808 9.55866 17.2062 10.049 18.521C10.09 18.6305 10.1314 18.7399 10.1731 18.8491C10.1848 18.8879 10.211 18.9206 10.2462 18.9407C10.2814 18.9607 10.3229 18.9665 10.3623 18.9568C10.4015 18.9457 10.4347 18.9197 10.4549 18.8843C10.475 18.8489 10.4804 18.807 10.4699 18.7676L10.47 18.7678Z" fill="#211715"/>
<path d="M16.2157 16.6573C16.2147 16.8621 16.2037 17.0966 16.3028 17.2831C16.3478 17.3583 16.4056 17.4251 16.4735 17.4805C16.5628 17.5582 16.6565 17.6309 16.7539 17.6981C16.7892 17.7185 16.8311 17.7242 16.8705 17.7138C16.9099 17.7035 16.9436 17.678 16.9643 17.643C16.9838 17.6075 16.989 17.5659 16.9787 17.5268C16.9685 17.4876 16.9436 17.4539 16.9092 17.4325C16.835 17.382 16.764 17.3271 16.6965 17.268C16.6655 17.241 16.6359 17.2124 16.608 17.1822C16.6025 17.1763 16.5973 17.1702 16.592 17.1641C16.5789 17.1494 16.5812 17.1488 16.592 17.1647C16.5838 17.1526 16.5759 17.1406 16.5685 17.1279C16.5663 17.1241 16.5583 17.1055 16.5661 17.1243C16.5748 17.1451 16.5639 17.116 16.5626 17.1122C16.5557 17.0915 16.55 17.0704 16.5452 17.0491C16.5424 17.037 16.54 17.0247 16.5375 17.0125C16.537 17.0099 16.5321 16.9808 16.5343 16.9954C16.5366 17.0101 16.5326 16.9801 16.5323 16.9777C16.531 16.9648 16.5297 16.9518 16.5287 16.9392C16.5214 16.8456 16.5226 16.7516 16.523 16.6577C16.523 16.6169 16.5068 16.5778 16.478 16.5489C16.4492 16.5201 16.4101 16.5039 16.3693 16.5039C16.3285 16.5039 16.2894 16.5201 16.2605 16.5489C16.2317 16.5778 16.2155 16.6169 16.2155 16.6577L16.2157 16.6573Z" fill="#211715"/>
<path d="M13.9885 16.669C13.9893 16.7634 13.9904 16.8581 13.9822 16.9523C13.9811 16.9649 13.9797 16.9774 13.9785 16.99C13.9801 16.9736 13.9798 16.9823 13.9779 16.9938C13.9743 17.0155 13.9702 17.0371 13.9652 17.0584C13.9601 17.0798 13.9538 17.0993 13.9475 17.12C13.9363 17.1565 13.9552 17.1108 13.9485 17.12C13.9447 17.1259 13.9413 17.1321 13.9382 17.1384C13.9351 17.1436 13.9314 17.1486 13.9281 17.1538C13.9134 17.1763 13.9443 17.1378 13.9302 17.1506C13.9177 17.1619 13.9072 17.1763 13.8952 17.1883C13.8665 17.2167 13.8362 17.2436 13.8047 17.2689C13.8053 17.2683 13.7747 17.2927 13.7849 17.2849C13.795 17.277 13.7623 17.3018 13.763 17.3012C13.7433 17.3159 13.7233 17.3302 13.7032 17.3443C13.6583 17.3759 13.6126 17.4064 13.5664 17.4366C13.5312 17.4572 13.5056 17.4909 13.4953 17.5303C13.4849 17.5698 13.4907 17.6118 13.5113 17.647C13.5318 17.6822 13.5656 17.7078 13.605 17.7181C13.6445 17.7285 13.6864 17.7227 13.7217 17.7021C13.8235 17.6369 13.9219 17.5664 14.0165 17.491C14.0897 17.4363 14.1531 17.3696 14.2039 17.2936C14.2526 17.1996 14.2806 17.0962 14.2861 16.9904C14.2959 16.8837 14.2993 16.7765 14.2961 16.6694C14.2961 16.6286 14.2799 16.5895 14.251 16.5607C14.2222 16.5318 14.1831 16.5156 14.1423 16.5156C14.1015 16.5156 14.0624 16.5318 14.0336 16.5607C14.0047 16.5895 13.9885 16.6286 13.9885 16.6694L13.9885 16.669Z" fill="#211715"/>
<path d="M16.6806 17.3184C16.6861 17.6179 16.6551 17.9168 16.5884 18.2088C16.5116 18.5697 16.4165 18.9264 16.3032 19.2775C16.0813 19.9823 15.8146 20.6723 15.5392 21.3577C15.4344 21.6191 15.3262 21.8786 15.2259 22.1414C15.2154 22.1808 15.2209 22.2227 15.241 22.2581C15.2611 22.2934 15.2944 22.3195 15.3336 22.3306C15.3729 22.3405 15.4145 22.3348 15.4498 22.3148C15.485 22.2947 15.5111 22.2618 15.5227 22.2229C16.0059 20.9561 16.5751 19.7128 16.8658 18.3818C16.9516 18.0339 16.9928 17.6765 16.9883 17.3182C16.9802 17.121 16.6726 17.12 16.6808 17.3182L16.6806 17.3184Z" fill="#211715"/>
<path d="M13.4715 17.4039C13.5142 17.9612 13.7047 18.506 13.8969 19.0262C14.1266 19.6484 14.3908 20.2575 14.6572 20.8648C14.8693 21.3486 15.0954 21.8296 15.2682 22.3295C15.3667 22.6139 15.45 22.8984 15.4305 23.2019C15.4096 23.527 15.375 23.853 15.3292 24.1755C15.2355 24.8666 15.0866 25.5491 14.884 26.2164C14.8249 26.4058 15.1217 26.4868 15.1805 26.2982C15.3665 25.6751 15.5081 25.0397 15.6045 24.3967C15.6544 24.0881 15.6882 23.7765 15.7168 23.4652C15.7289 23.3345 15.743 23.2022 15.744 23.0706C15.7405 22.9059 15.7152 22.7423 15.6687 22.5842C15.5269 22.0471 15.2859 21.5368 15.0633 21.0297C14.8019 20.4338 14.5381 19.838 14.3021 19.2316C14.1739 18.9017 14.053 18.5684 13.9526 18.229C13.8665 17.9606 13.8083 17.6839 13.7788 17.4035C13.7638 17.2075 13.4559 17.2058 13.4713 17.4035L13.4715 17.4039Z" fill="#211715"/>
<path d="M16.7568 17.4508C16.9671 17.5645 17.1589 17.7095 17.3257 17.8807C17.4201 17.9712 17.5107 18.0657 17.5963 18.1645C17.648 18.224 17.7627 18.3279 17.7747 18.4072V18.3255C17.765 18.3851 17.6853 18.4647 17.6487 18.5151C17.6064 18.5734 17.5636 18.6312 17.5203 18.6887C17.4627 18.7656 17.4029 18.8411 17.3469 18.9193C17.3267 18.9546 17.3212 18.9965 17.3315 19.0358C17.3418 19.0751 17.3671 19.1089 17.402 19.1298C17.4584 19.163 17.5173 19.1913 17.5739 19.2246C17.6018 19.2413 17.6435 19.272 17.6599 19.2808C17.6932 19.2985 17.7115 19.3755 17.6576 19.2305C17.6494 19.2086 17.6667 19.1952 17.6537 19.227C17.5792 19.4081 17.4862 19.5981 17.3923 19.7791C17.1836 20.1568 16.9501 20.5202 16.6934 20.8669C16.5013 21.1409 16.3038 21.411 16.1008 21.6773C16.0804 21.7126 16.0748 21.7544 16.0851 21.7938C16.0955 21.8332 16.1209 21.8669 16.1559 21.8877C16.1914 21.9073 16.233 21.9125 16.2722 21.9022C16.3114 21.8919 16.3451 21.8669 16.3664 21.8325C16.7321 21.3552 17.0819 20.8637 17.4076 20.3579C17.5122 20.197 17.6084 20.0308 17.6959 19.86C17.7529 19.7477 17.8087 19.6347 17.8612 19.5202C17.9024 19.4429 17.9351 19.3614 17.9588 19.2772C18.0053 19.0571 17.705 18.9517 17.557 18.8642L17.6122 19.0746C17.7312 18.9089 17.8587 18.7497 17.9767 18.5833C18.0596 18.4662 18.1137 18.3572 18.0286 18.2224C17.9761 18.1434 17.9184 18.0681 17.8559 17.9968C17.5969 17.6872 17.2775 17.3664 16.912 17.1855C16.7352 17.0979 16.5793 17.3631 16.7568 17.451V17.4508Z" fill="#211715"/>
<path d="M13.5474 17.2714C13.1888 17.4627 12.8756 17.7289 12.6288 18.0518C12.5674 18.1215 12.5142 18.198 12.4702 18.2798C12.4077 18.4128 12.4838 18.5105 12.5684 18.6077C12.6414 18.6913 12.7154 18.774 12.7892 18.8567C12.8154 18.886 12.8415 18.9153 12.8673 18.9449C12.8793 18.9587 12.8911 18.9726 12.9029 18.9866C12.9246 19.0124 12.8952 18.9744 12.9113 18.9968L12.9665 18.7864C12.799 18.8952 12.5424 19.0189 12.591 19.2545C12.6444 19.4587 12.7277 19.6538 12.8383 19.8336C13.1105 20.3263 13.4084 20.8067 13.7234 21.2731C13.9088 21.5537 14.1096 21.8238 14.325 22.0821C14.4534 22.233 14.67 22.0146 14.5424 21.8646C14.1903 21.4326 13.8709 20.9749 13.5867 20.4955C13.4538 20.2816 13.3245 20.0655 13.199 19.8471C13.1165 19.7119 13.0418 19.572 12.9752 19.4283C12.9459 19.3607 12.9208 19.2914 12.9001 19.2207C12.8975 19.2073 12.8939 19.194 12.8894 19.1811C12.8777 19.1571 12.8887 19.1756 12.881 19.2047C12.867 19.2562 12.8644 19.2397 12.8976 19.2095C12.9679 19.151 13.0429 19.0983 13.1217 19.0519C13.1566 19.0311 13.182 18.9973 13.1923 18.958C13.2026 18.9186 13.197 18.8768 13.1768 18.8415C13.1247 18.7703 13.0654 18.7049 13.0067 18.6392C12.9672 18.5949 12.9276 18.5507 12.8882 18.5063C12.8547 18.4686 12.7561 18.3886 12.7476 18.3416V18.4234C12.7585 18.3478 12.8581 18.2526 12.9073 18.1949C12.987 18.102 13.0717 18.0136 13.1611 17.9301C13.3213 17.7733 13.5037 17.6408 13.7025 17.5369C13.8799 17.4492 13.7242 17.1839 13.5473 17.2714L13.5474 17.2714Z" fill="#211715"/>
<path d="M10.1741 18.8481C10.4638 19.6038 10.7454 20.3627 10.9996 21.1311C11.1555 21.6024 11.3043 22.0774 11.4201 22.5603C11.4441 22.6609 11.4667 22.7619 11.4864 22.8634C11.495 22.908 11.5031 22.9527 11.5105 22.9974C11.514 23.0185 11.5173 23.0398 11.5204 23.0609C11.5255 23.0944 11.5215 23.0628 11.5262 23.1032C11.5409 23.2539 11.5365 23.4058 11.5133 23.5554C11.4423 24.0338 11.3271 24.5062 11.2116 24.9754C11.0771 25.5213 10.9325 26.0641 10.7907 26.6078C10.6779 27.0403 10.5606 27.4732 10.4726 27.9116C10.4474 28.0372 10.4135 28.1801 10.4774 28.3C10.5677 28.4692 10.7809 28.4494 10.9451 28.4588C11.2848 28.4782 11.6248 28.4936 11.9644 28.5145C12.6189 28.5548 13.3153 28.5903 13.8707 28.1821C14.3688 27.8159 14.6922 27.2641 14.9701 26.7238C15.0366 26.5947 15.1008 26.4644 15.1653 26.3343C15.2527 26.1574 14.9875 26.0014 14.8997 26.179C14.6399 26.7047 14.3793 27.2568 13.9705 27.686C13.7889 27.8878 13.5609 28.0423 13.3061 28.1361C12.988 28.2424 12.641 28.2395 12.3096 28.2262C11.9847 28.2133 11.6598 28.1895 11.335 28.1724C11.1712 28.1637 11.0075 28.1552 10.8438 28.1453C10.8086 28.1384 10.7727 28.1358 10.7369 28.1376C10.7206 28.1495 10.7499 28.1539 10.7493 28.1555C10.7504 28.1413 10.7503 28.127 10.7489 28.1128C10.7534 28.0676 10.7611 28.0227 10.7718 27.9785C10.8583 27.5531 10.9717 27.1327 11.0809 26.7129C11.3384 25.7246 11.6317 24.7343 11.7959 23.7249C11.832 23.5551 11.8482 23.3816 11.8439 23.2081C11.8282 23.0288 11.8005 22.8507 11.761 22.6751C11.6581 22.218 11.5324 21.7664 11.3842 21.3219C11.1234 20.5073 10.8291 19.7035 10.5231 18.9049L10.4701 18.7665C10.4583 18.7278 10.4321 18.695 10.3969 18.675C10.3617 18.655 10.3202 18.6492 10.2809 18.6589C10.2417 18.6699 10.2084 18.696 10.1883 18.7314C10.1681 18.7668 10.1627 18.8087 10.1732 18.848L10.1741 18.8481Z" fill="#211715"/>
<path d="M14.9922 26.1086C15.1767 26.555 15.3636 27.0018 15.5721 27.4377C15.6985 27.7018 15.875 27.9631 16.1266 28.1233C16.3989 28.2965 16.7583 28.3338 17.0714 28.3693C17.7885 28.451 18.5099 28.3754 19.2203 28.2702C19.3997 28.2437 19.5788 28.2157 19.7576 28.186C19.9141 28.1604 20.0503 28.0925 20.0773 27.9204C20.0805 27.8181 20.0673 27.7159 20.0381 27.6178C20.0237 27.5345 20.0074 27.4516 19.9905 27.3689C19.7772 26.3295 19.4996 25.3036 19.2735 24.2669C19.2101 23.976 19.1494 23.6846 19.0936 23.3922C19.0668 23.2518 19.0411 23.1113 19.0167 22.9705C19.0036 22.8748 19.0064 22.7776 19.0248 22.6828C19.0987 22.2095 19.1989 21.7407 19.3252 21.2786C19.5456 20.4328 19.8039 19.5948 20.0922 18.7699C20.1096 18.7199 20.1273 18.67 20.1453 18.6202C20.2128 18.4338 19.9157 18.3534 19.8488 18.5384C19.589 19.2557 19.3634 19.9876 19.1573 20.722C19.0256 21.191 18.9032 21.6641 18.8081 22.1422C18.7657 22.3555 18.7294 22.57 18.7038 22.786C18.6967 22.9092 18.7081 23.0329 18.7375 23.1528C18.7617 23.2898 18.7872 23.4265 18.8139 23.563C19.0261 24.6548 19.2999 25.7324 19.552 26.8153C19.5981 27.0145 19.6442 27.2139 19.6857 27.4142C19.7029 27.4966 19.7194 27.5792 19.7343 27.6621C19.74 27.6938 19.7454 27.7256 19.7506 27.7574C19.7623 27.795 19.7706 27.8336 19.7755 27.8727C19.7307 27.8858 19.6846 27.8935 19.638 27.8958C19.5453 27.9108 19.4525 27.9255 19.3597 27.9401C19.1832 27.9678 19.0065 27.994 18.8292 28.017C18.4892 28.0628 18.1469 28.0893 17.8039 28.0965C17.4609 28.1039 17.118 28.0778 16.7801 28.0186C16.6304 27.9986 16.4844 27.957 16.3467 27.8951C16.2215 27.8247 16.1132 27.7279 16.0292 27.6115C15.8806 27.4203 15.7889 27.1841 15.6909 26.9647C15.5893 26.7376 15.4903 26.5095 15.3941 26.2804C15.3586 26.1962 15.3234 26.1119 15.2884 26.0274C15.2765 25.9888 15.2503 25.9561 15.2152 25.9361C15.18 25.9161 15.1386 25.9103 15.0993 25.9198C15.06 25.9308 15.0267 25.9569 15.0066 25.9923C14.9864 26.0277 14.9811 26.0696 14.9916 26.1089L14.9922 26.1086Z" fill="#211715"/>
<path d="M8.11328 0.19756C8.1129 1.06061 8.20347 7.81821 8.20324 8.26023C9.51476 8.25969 21.0919 8.19103 21.8699 8.19103C21.8699 7.48476 21.8485 0.727075 21.8419 0.15435C21.1548 0.152735 9.28726 0.188487 8.11328 0.19756Z" fill="white"/>
<path d="M7.95898 0.197538C7.95898 0.55998 7.96398 0.922498 7.96775 1.28494C7.97436 1.91474 7.98154 2.54454 7.98928 3.17434C7.99784 3.89025 8.00653 4.60612 8.01534 5.32193C8.02298 5.94255 8.03049 6.5632 8.03787 7.18388C8.04194 7.52795 8.04702 7.87209 8.04879 8.21623C8.04879 8.23092 8.04879 8.24553 8.04879 8.26021C8.04938 8.30081 8.06578 8.33958 8.09449 8.36829C8.12319 8.397 8.16196 8.41339 8.20256 8.41398C8.8002 8.41398 9.39783 8.40975 9.99547 8.40683C11.0572 8.40171 12.1189 8.39622 13.1806 8.39038C14.4006 8.38387 15.6203 8.37723 16.84 8.37047C17.9017 8.36472 18.9634 8.35901 20.0251 8.35332C20.6146 8.35019 21.204 8.34737 21.7935 8.34486H21.8692C21.9098 8.34427 21.9486 8.32787 21.9773 8.29916C22.006 8.27046 22.0224 8.23169 22.023 8.19109C22.023 7.85333 22.0218 7.51549 22.0209 7.17773C22.0193 6.56105 22.0175 5.94437 22.0155 5.32769C22.0133 4.61383 22.0109 3.89994 22.0084 3.18603C22.0062 2.55659 22.0038 1.92714 22.0012 1.2977C21.9996 0.934416 21.9986 0.571052 21.9955 0.207764C21.9954 0.189927 21.9954 0.172012 21.9954 0.154021C21.9948 0.11343 21.9784 0.0746732 21.9497 0.0459675C21.921 0.0172618 21.8822 0.000863414 21.8416 0.000248439C21.3356 -0.000827968 20.8294 0.00186305 20.3233 0.00317011C19.2903 0.00578425 18.2575 0.00862904 17.2248 0.0117045C15.9902 0.0154975 14.7558 0.0193675 13.5217 0.0233143C12.4121 0.0269023 11.3024 0.0306697 10.1925 0.0346166C9.53305 0.0373332 8.87357 0.0401524 8.21409 0.0430741L8.11276 0.043766C7.91493 0.0453038 7.91447 0.352849 8.11276 0.351311C8.69532 0.346851 9.27797 0.345621 9.86061 0.343622C10.933 0.339522 12.0053 0.335805 13.0777 0.332474C14.314 0.328373 15.5504 0.324529 16.7868 0.320941C17.8616 0.317814 18.9364 0.31479 20.0112 0.311868C20.5988 0.31033 21.1863 0.3091 21.7738 0.308178H21.8416L21.6879 0.154405C21.6916 0.471176 21.6919 0.788024 21.6932 1.10487C21.6959 1.71074 21.6983 2.3166 21.7003 2.92246C21.7029 3.63566 21.7054 4.34891 21.7076 5.06221C21.7096 5.70113 21.7115 6.34011 21.7133 6.97913C21.7144 7.36213 21.7152 7.74512 21.7159 8.12812C21.7159 8.14908 21.7159 8.17007 21.7159 8.19109L21.8696 8.03732C21.3559 8.03732 20.8423 8.0417 20.3287 8.04431C19.31 8.04944 18.2913 8.05492 17.2725 8.06077L13.6204 8.0806C12.5205 8.0865 11.4205 8.09227 10.3205 8.0979C9.65256 8.10124 8.98452 8.10408 8.31643 8.10644H8.20271L8.35649 8.26021C8.35649 7.96389 8.35103 7.66742 8.34764 7.37118C8.34072 6.77541 8.33352 6.17967 8.32604 5.58396C8.31738 4.8703 8.30869 4.15646 8.29997 3.44244C8.29223 2.79178 8.28475 2.14109 8.27752 1.49038C8.27314 1.08427 8.26799 0.678 8.26661 0.271811C8.26661 0.247053 8.26661 0.222296 8.26661 0.197538C8.26653 -0.00036664 7.95898 -0.0006742 7.95898 0.197538Z" fill="#211715"/>
<path d="M22.7467 7.0901C22.5361 6.83715 22.3032 6.61241 22.0598 6.53914C21.8123 6.46456 21.4021 6.53145 21.2551 6.65231C21.2405 6.66404 21.2278 6.67788 21.2173 6.69337C21.162 6.77795 21.225 6.8779 21.3033 6.97608L21.3502 7.0349C21.2434 7.02667 21.0638 7.08365 21.0104 7.16991C20.9495 7.26817 20.9779 7.46808 21.0369 7.56203L21.047 7.58602C21.0198 7.59322 20.9937 7.60403 20.9694 7.61816C20.8617 7.68028 20.8034 7.92255 20.9127 8.10646C20.7235 8.17666 20.676 8.47728 20.8839 8.61391C20.966 8.65849 21.0395 8.71747 21.1008 8.78806C21.164 8.89055 21.1392 8.91108 21.1495 9.03071C21.1666 9.22139 21.2356 9.29489 21.3935 9.3787C21.3935 9.3787 21.3771 9.45259 21.3607 9.51986C21.6364 9.60959 21.9949 9.73514 22.269 9.8351C22.3053 9.73883 22.345 9.63373 22.345 9.63373C22.4526 9.40799 22.7779 8.31213 22.8079 8.00943C22.8457 7.62585 22.8828 7.28032 22.7467 7.0901Z" fill="white"/>
<path d="M20.9271 8.27693C21.0116 8.29999 21.0941 8.33075 21.1759 8.3615C21.2015 8.37134 21.2271 8.38139 21.2527 8.39164C21.2678 8.39774 21.2828 8.40389 21.2978 8.4101L21.305 8.41309L21.3126 8.41625C21.3757 8.44321 21.4381 8.47153 21.4998 8.50121C21.5172 8.51152 21.5365 8.51829 21.5566 8.52113C21.5766 8.52396 21.5971 8.5228 21.6167 8.51771C21.6363 8.51263 21.6547 8.50372 21.6709 8.49149C21.687 8.47927 21.7006 8.46397 21.7108 8.44648C21.7211 8.42899 21.7277 8.40965 21.7305 8.38958C21.7332 8.3695 21.7319 8.34908 21.7267 8.3295C21.7215 8.30991 21.7125 8.29154 21.7002 8.27545C21.6879 8.25936 21.6726 8.24585 21.655 8.23572C21.4477 8.13169 21.2316 8.04616 21.0092 7.98015C20.9897 7.97478 20.9694 7.97329 20.9493 7.97578C20.9293 7.97827 20.9099 7.98468 20.8923 7.99465C20.8748 8.00462 20.8593 8.01796 20.8469 8.03389C20.8345 8.04982 20.8254 8.06805 20.82 8.08752C20.8146 8.10699 20.8131 8.12733 20.8156 8.14738C20.8181 8.16742 20.8245 8.18678 20.8345 8.20435C20.8445 8.22191 20.8578 8.23734 20.8737 8.24976C20.8897 8.26217 20.9079 8.27133 20.9274 8.2767L20.9271 8.27693Z" fill="#211715"/>
<path d="M21.4113 6.86817C21.3965 6.8491 21.3502 6.79782 21.3516 6.77399C21.3523 6.76161 21.3463 6.77552 21.3464 6.77537C21.3465 6.77522 21.3636 6.76353 21.3686 6.75999C21.4266 6.72655 21.4897 6.70316 21.5555 6.69079C21.6918 6.65542 21.8343 6.65031 21.9729 6.6758C22.1382 6.72443 22.2871 6.81729 22.4034 6.94436C22.5168 7.05362 22.6448 7.16541 22.6751 7.3258C22.6973 7.50596 22.6947 7.68831 22.6674 7.86777C22.6629 7.91505 22.6578 7.96226 22.6536 8.00955C22.6498 8.05137 22.6563 7.99748 22.6514 8.02623C22.6437 8.07144 22.6351 8.11644 22.6256 8.16124C22.5722 8.4102 22.5025 8.65601 22.4304 8.89997C22.3893 9.03836 22.3465 9.17676 22.3006 9.31392C22.2827 9.36774 22.2642 9.42118 22.2445 9.47423C22.2374 9.49322 22.23 9.51206 22.2228 9.53097C22.2103 9.56334 22.2324 9.51198 22.2117 9.55619C22.1922 9.59166 22.1871 9.63324 22.1974 9.67238C22.2076 9.71152 22.2325 9.74525 22.2668 9.76663C22.3021 9.78686 22.344 9.79241 22.3833 9.78209C22.4227 9.77176 22.4564 9.74638 22.4773 9.71142C22.5784 9.47473 22.6619 9.23084 22.7269 8.98177C22.8154 8.70384 22.8877 8.42101 22.9435 8.13472C22.9733 7.95272 22.9904 7.76888 22.9948 7.58452C23.0007 7.39999 22.9921 7.1924 22.8911 7.03094C22.7577 6.83654 22.5887 6.6691 22.3931 6.53741C22.2306 6.42105 22.0363 6.35722 21.8364 6.35449C21.63 6.34633 21.4248 6.38931 21.2391 6.47959C21.1865 6.50322 21.1409 6.53998 21.1067 6.58632C21.0724 6.63267 21.0506 6.68705 21.0435 6.74423C21.0358 6.87778 21.1163 6.98527 21.1941 7.08499C21.223 7.11363 21.2621 7.1297 21.3028 7.1297C21.3435 7.1297 21.3826 7.11363 21.4115 7.08499C21.4395 7.05568 21.455 7.01675 21.455 6.97627C21.455 6.93579 21.4395 6.89686 21.4115 6.86756L21.4113 6.86817Z" fill="#211715"/>
<path d="M22.2711 7.19465C22.1131 7.10718 21.9484 7.03262 21.7785 6.97168C21.701 6.94593 21.6219 6.92538 21.5417 6.91017C21.4562 6.88855 21.368 6.87967 21.2799 6.8838C21.1162 6.9014 20.927 6.97214 20.8581 7.13422C20.8282 7.21663 20.8168 7.30465 20.8247 7.39198C20.8327 7.47932 20.8599 7.56381 20.9043 7.63944C21.0051 7.80958 21.271 7.65481 21.1698 7.48428C21.1629 7.47306 21.1568 7.4614 21.1514 7.44937C21.1634 7.47751 21.1471 7.43192 21.1467 7.4303C21.1422 7.41493 21.139 7.39955 21.1354 7.38371C21.1288 7.35457 21.1336 7.39209 21.1319 7.35942C21.1311 7.34312 21.1301 7.32689 21.1305 7.31044C21.1305 7.30675 21.134 7.26692 21.1316 7.28399C21.1296 7.2976 21.1382 7.259 21.1392 7.25385C21.1439 7.23694 21.1392 7.27384 21.143 7.24762C21.1301 7.263 21.1295 7.26408 21.1413 7.25101L21.1506 7.24224C21.1289 7.26315 21.1583 7.23794 21.164 7.23455C21.1767 7.22693 21.1899 7.2201 21.2034 7.2141C21.1791 7.22479 21.2236 7.20764 21.2242 7.20749C21.239 7.20272 21.2539 7.19862 21.2689 7.19519C21.2725 7.19434 21.3115 7.18696 21.2925 7.1898C21.2759 7.19234 21.316 7.18827 21.3208 7.18811C21.3255 7.18796 21.3592 7.18904 21.3479 7.18811C21.6158 7.20964 21.8737 7.33289 22.1153 7.46014C22.1507 7.47984 22.1924 7.48509 22.2316 7.47481C22.2708 7.46452 22.3046 7.43949 22.3257 7.40493C22.3459 7.36961 22.3514 7.32781 22.3411 7.28849C22.3307 7.24917 22.3054 7.21546 22.2705 7.19457L22.2711 7.19465Z" fill="#211715"/>
<path d="M21.9776 7.68499C21.8287 7.6218 21.6767 7.56642 21.5221 7.51907C21.3654 7.46871 21.2129 7.40274 21.0446 7.43034C20.6947 7.48777 20.6289 7.91257 20.7781 8.18113C20.7883 8.19857 20.8018 8.21383 20.8179 8.22604C20.834 8.23825 20.8523 8.24717 20.8719 8.25229C20.8914 8.25741 20.9117 8.25864 20.9318 8.2559C20.9518 8.25315 20.971 8.24649 20.9885 8.2363C21.0059 8.22611 21.0212 8.21258 21.0334 8.19649C21.0456 8.1804 21.0545 8.16206 21.0596 8.14253C21.0648 8.12299 21.066 8.10263 21.0632 8.08262C21.0605 8.06261 21.0538 8.04334 21.0436 8.0259C21.0436 8.0259 21.022 7.98269 21.032 8.00614C21.0271 7.99425 21.0231 7.98208 21.0197 7.9697C21.0155 7.95517 21.012 7.9404 21.0095 7.92549C21.0064 7.90857 21.0095 7.94325 21.0088 7.9148C21.0088 7.90019 21.0078 7.88589 21.0083 7.87128C21.0083 7.86736 21.0115 7.82907 21.0092 7.84952C21.0069 7.86998 21.0125 7.83338 21.0133 7.82946C21.0163 7.81654 21.0203 7.80424 21.024 7.79147C21.034 7.75549 21.0094 7.81331 21.0273 7.78248C21.0329 7.77453 21.0377 7.76609 21.0417 7.75726C21.0466 7.74188 21.0218 7.77587 21.0405 7.75811C21.0439 7.75434 21.0475 7.75042 21.0513 7.74726C21.0599 7.73958 21.0559 7.74234 21.0391 7.75603C21.0468 7.74065 21.0852 7.73496 21.1016 7.73127C21.1125 7.72912 21.1127 7.72897 21.1016 7.73058L21.118 7.72966C21.1344 7.72966 21.1503 7.72966 21.1667 7.7312C21.1454 7.72927 21.1736 7.73273 21.1813 7.73435C21.1944 7.73704 21.2073 7.74027 21.2202 7.74373C21.2502 7.7518 21.2796 7.76187 21.309 7.77195C21.3683 7.79245 21.4279 7.81208 21.4876 7.83084C21.601 7.86502 21.7126 7.90498 21.822 7.95055C21.8574 7.97006 21.899 7.97521 21.9382 7.96494C21.9774 7.95467 22.0111 7.92976 22.0324 7.89535C22.0525 7.86002 22.058 7.81823 22.0477 7.77892C22.0374 7.7396 22.0121 7.70588 21.9772 7.68499H21.9776Z" fill="#211715"/>
<path d="M21.4714 9.24614C21.4425 9.23076 21.4148 9.21361 21.3868 9.19608C21.3566 9.17702 21.3956 9.206 21.3727 9.18509C21.361 9.17468 21.35 9.1635 21.3398 9.15164C21.3327 9.14334 21.3341 9.14495 21.3439 9.15672C21.3401 9.15118 21.3367 9.14557 21.3335 9.1398C21.3302 9.13404 21.3268 9.12819 21.3238 9.12212C21.329 9.13575 21.3296 9.13729 21.3258 9.12673C21.3167 9.10068 21.3097 9.07394 21.3049 9.04677C21.2967 8.99095 21.3049 8.90945 21.2909 8.84487C21.2727 8.76866 21.2344 8.69876 21.1798 8.6425C21.1215 8.5873 21.057 8.53894 20.9876 8.49834C20.9892 8.49942 20.9506 8.4742 20.9655 8.48565C20.953 8.47577 20.9415 8.46472 20.931 8.45267C20.9474 8.47143 20.9227 8.43906 20.9197 8.43476C20.9007 8.40861 20.9206 8.44621 20.9114 8.41838C20.9069 8.4048 20.9034 8.39093 20.9008 8.37686C20.9067 8.409 20.9016 8.36917 20.9016 8.36148C20.9016 8.35003 20.9074 8.32035 20.9016 8.34703C20.9045 8.33357 20.9083 8.3205 20.912 8.3072C20.9192 8.28198 20.9024 8.31758 20.922 8.28859C20.9253 8.28276 20.929 8.27712 20.9329 8.27168C20.9237 8.28321 20.9226 8.2849 20.9298 8.27675C20.9334 8.27306 20.9628 8.248 20.949 8.25776C20.9351 8.26753 20.9751 8.24485 20.9797 8.24239C21.0147 8.22157 21.04 8.18786 21.0504 8.14851C21.0607 8.10915 21.0551 8.06732 21.0349 8.03203C21.0137 7.99749 20.98 7.97246 20.9408 7.96218C20.9016 7.9519 20.8599 7.95714 20.8245 7.97682C20.75 8.01557 20.6886 8.0753 20.6478 8.14863C20.607 8.22196 20.5886 8.30564 20.595 8.38932C20.5999 8.47496 20.6292 8.55741 20.6795 8.62689C20.7399 8.69733 20.812 8.75688 20.8925 8.80296C20.9231 8.8214 20.9505 8.84478 20.9734 8.87216C20.9525 8.84471 20.9937 8.91368 20.9852 8.89454C20.9875 8.90537 20.9905 8.91606 20.9942 8.92652C20.9845 8.88531 20.9922 8.93559 20.9923 8.94628C20.9923 8.96166 20.9923 8.97703 20.9931 8.99241C20.9952 9.04268 21.0011 9.09273 21.0108 9.14211C21.0299 9.22295 21.0673 9.29832 21.1202 9.36239C21.1731 9.42647 21.2399 9.47752 21.3157 9.51162C21.4899 9.60558 21.6454 9.34017 21.4709 9.24606L21.4714 9.24614Z" fill="#211715"/>
<path d="M7.69861 9.89328L7.71076 9.88851C7.96679 9.77925 8.30778 9.63748 8.58088 9.53083C8.55781 9.46364 8.5389 9.41066 8.5389 9.41066C8.70267 9.33331 8.77602 9.26227 8.80231 9.07006C8.81884 8.94919 8.79462 8.92751 8.8632 8.82679C8.92855 8.75825 9.00569 8.70202 9.09094 8.66079C9.30776 8.53224 9.27393 8.22577 9.08587 8.14565C9.20519 7.96466 9.15768 7.7167 9.05165 7.64874C9.0274 7.6331 9.00115 7.62082 8.97361 7.61222L8.98607 7.58915C9.05011 7.49689 9.08833 7.29621 9.03135 7.19388C8.98138 7.10408 8.80246 7.03788 8.69359 7.04095C8.72312 7.00774 8.74411 6.98383 8.74411 6.98383C8.84214 6.87203 8.91872 6.75801 8.80831 6.65844C8.66522 6.52958 8.25334 6.44193 7.99923 6.50567C7.85405 6.54828 7.71946 6.62094 7.60419 6.71895C7.48754 6.81419 7.37849 6.91838 7.27804 7.03057C7.13119 7.21656 7.15233 7.56808 7.17248 7.95805C7.18839 8.2656 7.54807 9.4804 7.64102 9.73335C7.64102 9.73335 7.66785 9.8077 7.69861 9.89328Z" fill="white"/>
<path d="M8.98854 8.01823C8.7608 8.07512 8.53851 8.15194 8.32424 8.24781C8.28961 8.26805 8.26425 8.30102 8.25359 8.33969C8.24821 8.35918 8.24673 8.37954 8.24923 8.39961C8.25173 8.41967 8.25816 8.43905 8.26816 8.45662C8.27816 8.4742 8.29153 8.48963 8.30749 8.50203C8.32346 8.51444 8.34172 8.52357 8.36123 8.5289C8.40132 8.53729 8.44308 8.53188 8.47971 8.51353C8.46794 8.51853 8.46149 8.52122 8.47717 8.51468L8.50024 8.5053C8.51715 8.49846 8.53407 8.49161 8.55098 8.48493C8.58045 8.47329 8.60998 8.46194 8.63955 8.45087C8.69768 8.42918 8.75622 8.40868 8.81516 8.38936C8.89974 8.36145 8.98431 8.33484 9.07089 8.31524C9.11009 8.30419 9.14336 8.27815 9.16351 8.24275C9.18365 8.20735 9.18905 8.16544 9.17853 8.1261C9.16698 8.08722 9.14085 8.0543 9.1056 8.03424C9.07035 8.01418 9.02871 8.00852 8.98939 8.01846L8.98854 8.01823Z" fill="#211715"/>
<path d="M8.85401 7.09266C8.93089 7.00309 9.01224 6.90268 9.01708 6.77889C9.01644 6.72332 9.00159 6.66885 8.97395 6.62064C8.94631 6.57243 8.90679 6.5321 8.85916 6.50348C8.69286 6.40265 8.50393 6.34515 8.30965 6.33626C7.84834 6.29351 7.45476 6.58137 7.17051 6.92205C7.0388 7.0799 7.0122 7.29395 7.00666 7.49247C6.99887 7.68574 7.00761 7.87933 7.03281 8.07112C7.08188 8.35758 7.14904 8.64065 7.23386 8.91863C7.31344 9.20519 7.39217 9.49482 7.49397 9.77445C7.56109 9.95898 7.85841 9.87933 7.79052 9.69272C7.62795 9.23179 7.49343 8.76144 7.38771 8.28424C7.37518 8.23042 7.36319 8.17599 7.35242 8.12155C7.34773 8.0981 7.34327 8.07465 7.33912 8.05105C7.3372 8.03959 7.32789 7.97301 7.33243 8.01168C7.31394 7.83927 7.30786 7.66575 7.31421 7.49247C7.31844 7.34639 7.33059 7.19653 7.43646 7.08736C7.57339 6.93104 7.73633 6.7996 7.91807 6.69885C8.08074 6.62978 8.26191 6.61743 8.43244 6.66379C8.50892 6.67798 8.58304 6.7028 8.65264 6.73752C8.67786 6.75121 8.70454 6.76221 8.715 6.78312C8.69962 6.75167 8.71631 6.76974 8.69962 6.79011C8.67732 6.81695 8.65995 6.84824 8.63681 6.87515C8.50848 7.02462 8.72507 7.24313 8.85424 7.09266H8.85401Z" fill="#211715"/>
<path d="M7.905 7.4298C8.15104 7.31447 8.41422 7.20775 8.68632 7.19522C8.69716 7.19468 8.70793 7.19522 8.71869 7.19522C8.7566 7.19522 8.69609 7.18753 8.73584 7.19745C8.76447 7.20385 8.79271 7.21191 8.82041 7.22159C8.83033 7.22543 8.83056 7.22543 8.82126 7.22159C8.82895 7.2249 8.83579 7.22843 8.84286 7.2322C8.85424 7.23843 8.86539 7.24519 8.87669 7.25158C8.90906 7.2698 8.86401 7.2475 8.89138 7.26288C8.90183 7.27457 8.90368 7.27587 8.89668 7.26688C8.88969 7.25788 8.89115 7.25919 8.89899 7.27157L8.89461 7.25911C8.8979 7.26795 8.90063 7.27699 8.90276 7.28617C8.91106 7.31178 8.90406 7.2811 8.90483 7.29763C8.9056 7.31416 8.90599 7.32977 8.90529 7.34592C8.90529 7.3526 8.90237 7.38305 8.90529 7.36291C8.90003 7.3953 8.89232 7.42725 8.88223 7.45848C8.87392 7.48716 8.88946 7.45079 8.87454 7.47724C8.86793 7.48885 8.86162 7.5003 8.85424 7.51161C8.84392 7.52904 8.83715 7.54835 8.83432 7.56841C8.83149 7.58847 8.83265 7.60889 8.83773 7.62851C8.84282 7.64812 8.85173 7.66653 8.86395 7.68269C8.87618 7.69885 8.89148 7.71243 8.90897 7.72266C8.92646 7.73288 8.9458 7.73955 8.96587 7.74228C8.98595 7.74501 9.00636 7.74374 9.02595 7.73856C9.04554 7.73337 9.0639 7.72436 9.08 7.71206C9.09609 7.69975 9.10959 7.68438 9.11973 7.66684C9.16564 7.59498 9.19579 7.5142 9.2082 7.42983C9.2206 7.34546 9.21498 7.25942 9.1917 7.17738C9.13503 7.01354 8.95758 6.92366 8.79573 6.89698C8.70294 6.88589 8.60898 6.88934 8.51725 6.9072C8.43304 6.91856 8.34967 6.93544 8.26768 6.95772C8.08952 7.01203 7.91621 7.08111 7.74954 7.16423C7.71458 7.18506 7.6892 7.2188 7.67889 7.25817C7.66858 7.29753 7.67415 7.33938 7.69441 7.37467C7.71562 7.40919 7.74934 7.43419 7.78853 7.44447C7.82772 7.45474 7.86936 7.44948 7.90477 7.4298H7.905Z" fill="#211715"/>
<path d="M8.14105 7.95539C8.26256 7.90999 8.38642 7.87115 8.5121 7.83907C8.57692 7.82169 8.64158 7.80393 8.70601 7.78525C8.73261 7.77756 8.75914 7.76987 8.78613 7.76349C8.8015 7.75987 8.81634 7.75664 8.83164 7.75411C8.84264 7.75226 8.84187 7.75226 8.82949 7.75411C8.83718 7.75326 8.84487 7.75272 8.85302 7.75241C8.86617 7.7518 8.87931 7.75241 8.89246 7.75241C8.91137 7.75395 8.9136 7.75403 8.8993 7.75241L8.91522 7.75595C8.91522 7.75595 8.95612 7.77025 8.94213 7.76364C8.95029 7.76757 8.95822 7.77196 8.96589 7.77679C8.97947 7.78555 8.9766 7.78273 8.95728 7.76833C8.96435 7.77002 8.97265 7.78417 8.97765 7.78878C8.9615 7.77287 8.96658 7.7734 8.97765 7.79201C8.97996 7.79601 8.9941 7.82469 8.98472 7.80408C8.97534 7.78348 8.98972 7.82023 8.99111 7.82507C8.99403 7.83514 8.99587 7.84545 8.99879 7.85583C9.00817 7.8892 8.99941 7.83407 9.00072 7.8669C9.00187 7.89481 9.00172 7.92172 9.00018 7.94963C9.00195 7.91741 8.99772 7.96039 8.99656 7.965C8.99341 7.97931 8.98888 7.99307 8.98488 8.00722C8.97819 8.03267 8.98772 8.0046 8.98096 8.01867C8.97321 8.0345 8.96461 8.0499 8.9552 8.0648C8.93501 8.10011 8.92948 8.14193 8.93981 8.18127C8.95013 8.22061 8.97548 8.25432 9.0104 8.27516C9.04581 8.29492 9.08748 8.3002 9.1267 8.28991C9.16591 8.27962 9.19962 8.25455 9.22076 8.21996C9.3813 7.96078 9.33033 7.53298 8.98941 7.45717C8.82372 7.42034 8.66795 7.47716 8.51003 7.5203C8.35765 7.55851 8.20733 7.60448 8.05963 7.658C8.02079 7.66961 7.98793 7.69575 7.96788 7.73098C7.94783 7.76621 7.94214 7.80782 7.95199 7.84714C7.96318 7.88627 7.98925 7.91945 8.02463 7.93958C8.06 7.9597 8.10185 7.96516 8.14121 7.95478L8.14105 7.95539Z" fill="#211715"/>
<path d="M8.61768 9.54439C8.69325 9.51367 8.76099 9.46644 8.81594 9.40615C8.87088 9.34585 8.91164 9.27403 8.93522 9.19594C8.94733 9.14827 8.95556 9.0997 8.95982 9.0507C8.96205 9.02902 8.96336 9.00734 8.96459 8.98558C8.96505 8.97697 8.96551 8.96828 8.96621 8.95967C8.96267 8.98073 8.96249 8.9826 8.96567 8.96528C8.96828 8.95951 8.98105 8.92599 8.96867 8.95229C8.97274 8.94398 9.00611 8.89785 8.99296 8.9123C9.01855 8.88664 9.04774 8.86483 9.07961 8.84757C9.15549 8.80932 9.22468 8.75905 9.28452 8.69871C9.34802 8.62385 9.3863 8.53087 9.39392 8.433C9.40127 8.35005 9.3845 8.26674 9.34565 8.19309C9.30679 8.11944 9.24749 8.05857 9.17488 8.01781C9.13944 7.99815 9.09778 7.99292 9.05858 8.0032C9.01938 8.01348 8.98566 8.03849 8.96444 8.07301C8.94429 8.10833 8.93878 8.15014 8.9491 8.18946C8.95942 8.22879 8.98475 8.26251 9.01964 8.28338C9.03168 8.28932 9.04322 8.29621 9.05416 8.30398C9.01995 8.2783 9.07431 8.32897 9.05847 8.31006C9.04717 8.2966 9.0697 8.32858 9.07239 8.33312C9.09076 8.36241 9.07523 8.32674 9.08007 8.35188C9.08277 8.36526 9.08723 8.37802 9.08922 8.39163C9.08507 8.36388 9.08792 8.39448 9.08776 8.40555C9.08776 8.41247 9.08007 8.45083 9.08776 8.41993C9.08453 8.43384 9.08115 8.44722 9.07669 8.46075C9.08584 8.43292 9.07192 8.4699 9.06823 8.47613C9.06554 8.48067 9.04132 8.51088 9.05732 8.49289C9.04057 8.51386 9.01892 8.53039 8.99427 8.54102C8.92012 8.58027 8.85074 8.62795 8.78752 8.68311C8.73072 8.73806 8.68984 8.80734 8.66919 8.88363C8.65228 8.94936 8.65905 9.02294 8.64613 9.08276C8.64282 9.09814 8.63898 9.1139 8.63429 9.12889C8.63221 9.13566 8.61522 9.17341 8.62906 9.14565C8.62306 9.15773 8.61607 9.16872 8.60953 9.18048C8.59315 9.21009 8.62675 9.16741 8.60184 9.19002C8.59216 9.19878 8.58324 9.20839 8.57339 9.21708C8.59646 9.19632 8.56571 9.22185 8.56002 9.22577C8.52865 9.2455 8.49603 9.26317 8.46237 9.27867C8.42744 9.29951 8.4021 9.33323 8.39179 9.37257C8.38148 9.41192 8.38703 9.45374 8.40724 9.48903C8.4284 9.52361 8.46211 9.54866 8.50132 9.55895C8.54053 9.56924 8.5822 9.56397 8.6176 9.54423L8.61768 9.54439Z" fill="#211715"/>
<path d="M7.72991 10.5722C7.69854 10.4731 7.66548 10.3746 7.63196 10.2761C7.6001 10.1992 7.57384 10.12 7.55338 10.0393V10.1211C7.549 10.1518 7.51255 10.1452 7.55338 10.1331C7.56464 10.1289 7.57566 10.1241 7.58636 10.1186C7.61366 10.1066 7.64111 10.0948 7.66848 10.0828C7.72768 10.0572 7.78696 10.0318 7.84632 10.0067C7.99179 9.94491 8.13774 9.88412 8.28418 9.82436C8.42742 9.76585 8.57105 9.70811 8.71567 9.6529C8.77326 9.63091 8.831 9.60923 8.88912 9.58878C8.92824 9.56936 8.97075 9.55769 9.0143 9.55441L8.93649 9.53334C8.90381 9.51858 8.9125 9.47468 8.92418 9.51797C8.92857 9.53396 8.93564 9.55018 8.9411 9.56571C8.95581 9.60708 8.97039 9.64844 8.98485 9.68981C9.01432 9.77372 9.04361 9.85767 9.07273 9.94169C9.13708 10.1275 9.43409 10.0476 9.36928 9.85988C9.33263 9.75403 9.29565 9.64826 9.25833 9.54257C9.22196 9.43923 9.19775 9.32129 9.09172 9.26809C8.99507 9.21949 8.89358 9.26186 8.79955 9.29507C8.71183 9.32583 8.62494 9.3595 8.53814 9.39333C8.32393 9.47691 8.11119 9.56448 7.89906 9.65336C7.79547 9.69678 7.69201 9.7406 7.58867 9.78484C7.50766 9.81339 7.42921 9.84876 7.35417 9.89056C7.21324 9.98282 7.25606 10.1289 7.30089 10.2588C7.34633 10.3902 7.39092 10.5218 7.4329 10.6543C7.49249 10.8423 7.7895 10.7619 7.72945 10.5725L7.72991 10.5722Z" fill="#211715"/>
<path d="M20.8972 10.0174C20.9339 9.91045 20.9705 9.80342 21.0069 9.69629C21.0223 9.65162 21.0377 9.60688 21.0522 9.56213C21.0586 9.5487 21.0633 9.53452 21.0662 9.51992C21.082 9.47891 21.0545 9.49396 20.9838 9.56505C20.9911 9.56697 20.9984 9.56882 21.0057 9.57082C21.0688 9.59377 21.1332 9.6129 21.1987 9.6281C21.2849 9.65521 21.3709 9.6832 21.4565 9.71206C21.6521 9.77741 21.847 9.84497 22.0413 9.91473C22.1296 9.94641 22.2178 9.97849 22.3057 10.011C22.3457 10.0258 22.3855 10.0408 22.4252 10.0559L22.4698 10.0731L22.4971 10.0838C22.5273 10.0971 22.5163 10.0869 22.4644 10.053V9.97124C22.4467 10.0507 22.4226 10.1287 22.3922 10.2043C22.3592 10.3062 22.3263 10.4082 22.2946 10.5105C22.236 10.7 22.5329 10.7811 22.5911 10.5922C22.629 10.4699 22.6686 10.3481 22.7082 10.2263C22.7435 10.1179 22.7987 10.0033 22.7313 9.89451C22.6755 9.80432 22.5521 9.77641 22.4581 9.74074C22.364 9.70506 22.2708 9.67154 22.177 9.63748C21.9542 9.55731 21.7306 9.47971 21.506 9.40467C21.4138 9.37391 21.3215 9.34393 21.2293 9.3154C21.1533 9.28474 21.0733 9.26534 20.9917 9.25781C20.8247 9.25927 20.7807 9.40674 20.737 9.53629C20.6921 9.66956 20.6467 9.8026 20.6009 9.93541C20.5365 10.123 20.8334 10.2036 20.8974 10.0172L20.8972 10.0174Z" fill="#211715"/>
<path d="M14.762 15.5583C14.9128 15.6323 15.0795 15.6681 15.2474 15.6625C15.4229 15.6716 15.5978 15.6349 15.7549 15.5561C15.7723 15.5459 15.7876 15.5324 15.7998 15.5163C15.812 15.5002 15.8209 15.4819 15.826 15.4623C15.8312 15.4428 15.8324 15.4225 15.8296 15.4024C15.8269 15.3824 15.8202 15.3632 15.81 15.3457C15.7998 15.3283 15.7863 15.313 15.7702 15.3008C15.7541 15.2886 15.7358 15.2797 15.7163 15.2746C15.6967 15.2694 15.6764 15.2682 15.6564 15.271C15.6364 15.2737 15.6171 15.2804 15.5996 15.2906C15.5906 15.2957 15.5815 15.3007 15.5722 15.3053C15.5675 15.3076 15.5627 15.3096 15.558 15.3121C15.5346 15.3242 15.596 15.2981 15.5697 15.3072C15.5433 15.3162 15.5152 15.3259 15.4869 15.3327C15.469 15.337 15.4509 15.3404 15.4326 15.3437C15.4278 15.3445 15.396 15.3494 15.4197 15.346C15.4434 15.3426 15.4093 15.3471 15.4043 15.3475C15.3522 15.3528 15.2997 15.3553 15.2473 15.3552C15.1976 15.3553 15.1479 15.3528 15.0985 15.3475C15.0813 15.3506 15.0759 15.3451 15.0985 15.3475C15.0878 15.347 15.0771 15.3452 15.0668 15.3421C15.0511 15.3392 15.0356 15.3358 15.0201 15.3318C14.993 15.3249 14.9669 15.3118 14.94 15.3055C14.944 15.3065 14.9785 15.3232 14.9569 15.3124C14.9526 15.3102 14.9483 15.3083 14.944 15.3062C14.9349 15.3019 14.926 15.2972 14.917 15.2925C14.8818 15.2719 14.8398 15.2661 14.8003 15.2765C14.7609 15.2868 14.7272 15.3124 14.7066 15.3476C14.686 15.3829 14.6802 15.4248 14.6906 15.4643C14.7009 15.5037 14.7265 15.5375 14.7617 15.558L14.762 15.5583Z" fill="#211715"/>
<path d="M15.1859 14.3671C15.2089 14.4502 15.2274 14.5345 15.2411 14.6196L15.2356 14.5787C15.2372 14.5902 15.2375 14.6019 15.2365 14.6135L15.2421 14.5727C15.2412 14.5779 15.2399 14.583 15.2382 14.5881L15.2536 14.5513C15.2521 14.5548 15.2502 14.5582 15.2481 14.5614L15.2721 14.5302C15.2697 14.5332 15.2669 14.536 15.2639 14.5384L15.295 14.5143C15.2886 14.5183 15.2819 14.5219 15.275 14.5249L15.3117 14.5096C15.3009 14.5142 15.2896 14.5175 15.278 14.5194L15.319 14.5139C15.3084 14.5152 15.2978 14.5152 15.2873 14.5139L15.3282 14.5194C15.3163 14.5178 15.3045 14.5149 15.2926 14.5132C15.2727 14.5069 15.2515 14.5059 15.2311 14.5105C15.2107 14.5114 15.191 14.5177 15.1739 14.5288C15.1564 14.539 15.1412 14.5525 15.129 14.5686C15.1167 14.5847 15.1078 14.603 15.1027 14.6225C15.0976 14.6421 15.0963 14.6624 15.0991 14.6824C15.1018 14.7024 15.1085 14.7217 15.1187 14.7391C15.1284 14.7566 15.1417 14.7718 15.1575 14.784C15.1734 14.7961 15.1916 14.8049 15.2109 14.8098C15.2402 14.8138 15.2687 14.8212 15.2985 14.8225C15.3443 14.8227 15.3896 14.8118 15.4303 14.7907C15.4565 14.7785 15.4796 14.7607 15.4981 14.7385C15.5166 14.7164 15.5299 14.6904 15.5372 14.6624C15.5467 14.6177 15.5462 14.5715 15.5359 14.527C15.5222 14.4457 15.5034 14.365 15.4821 14.2852C15.471 14.2466 15.4458 14.2136 15.4114 14.1929C15.385 14.1775 15.3545 14.1703 15.324 14.1722C15.2935 14.1741 15.2642 14.1851 15.24 14.2037C15.2157 14.2224 15.1976 14.2479 15.1879 14.2769C15.1782 14.3059 15.1773 14.3371 15.1855 14.3666L15.1859 14.3671Z" fill="#211715"/>
<path d="M13.8735 13.6472C13.8314 13.7842 13.8588 14.0994 14.1184 14.1262C14.4615 14.1242 14.4798 13.743 14.3645 13.5639C14.2697 13.4176 13.992 13.3561 13.8735 13.6472Z" fill="#211715"/>
<path d="M16.6211 13.6454C16.6633 13.7824 16.6358 14.0976 16.3762 14.1244C16.0332 14.1224 16.0149 13.7413 16.1302 13.5621C16.2249 13.4154 16.503 13.3543 16.6211 13.6454Z" fill="#211715"/>
<g clip-path="url(#clip1_388_7889)">
<path d="M14.1032 2.78876C14.1032 2.38065 13.8424 2.0255 13.4418 1.91021C13.3681 1.58417 13.0814 1.33398 12.694 1.33398C12.5229 1.33398 12.3718 1.38284 12.2499 1.46526C12.1937 1.4561 12.137 1.4515 12.0802 1.45149C11.5208 1.45149 11.1341 1.87448 11.1341 2.3695C11.134 2.43935 11.1407 2.50902 11.154 2.57729C11.07 2.71971 11.0253 2.88629 11.0254 3.05656C11.0254 3.52773 11.3004 3.87391 11.7088 3.96678C11.7877 4.10103 11.9339 4.18296 12.1136 4.18296C12.2214 4.18296 12.3148 4.15538 12.3894 4.10628C12.5097 4.15541 12.637 4.18001 12.7652 4.17889C13.1752 4.17889 13.4791 3.96515 13.6075 3.62874C13.9174 3.48197 14.1032 3.17652 14.1032 2.78876Z" fill="#79C6E0"/>
<path d="M14.1303 2.78897C14.1299 2.62757 14.0899 2.46935 14.0146 2.33136C13.9366 2.19145 13.8283 2.0756 13.6994 1.99452C13.621 1.94498 13.537 1.9072 13.4496 1.88216L13.468 1.90263C13.4249 1.71475 13.3138 1.55487 13.1678 1.45072C12.9978 1.32949 12.7869 1.28659 12.5876 1.31148C12.4639 1.32577 12.3444 1.36966 12.2374 1.44015L12.2577 1.43719C12.0053 1.39689 11.7383 1.44005 11.5186 1.58892C11.339 1.71063 11.1984 1.90082 11.1394 2.12666C11.1021 2.27626 11.0986 2.43381 11.1293 2.58527L11.132 2.56267C10.9986 2.79138 10.9669 3.07732 11.0343 3.33816C11.0894 3.54987 11.2118 3.73216 11.3787 3.85122C11.4778 3.92088 11.5875 3.96969 11.7025 3.99521L11.6867 3.98178C11.8043 4.17958 12.0334 4.24106 12.2344 4.20048C12.2939 4.1887 12.3511 4.16545 12.4034 4.13177L12.3831 4.13473C12.5859 4.2188 12.8153 4.22976 13.0261 4.17758C13.1963 4.13543 13.3579 4.04385 13.4784 3.90227C13.5426 3.82678 13.5943 3.73924 13.6309 3.64372L13.6215 3.65424C13.7405 3.59876 13.8467 3.51403 13.932 3.40642C14.0141 3.30055 14.0727 3.17479 14.1032 3.03922C14.1213 2.95734 14.1304 2.87332 14.1303 2.789C14.1303 2.75127 14.0776 2.75123 14.0775 2.789C14.0787 2.9277 14.0515 3.0649 13.998 3.19023C13.9458 3.30878 13.8688 3.41174 13.7735 3.49056C13.7229 3.53204 13.6685 3.56731 13.611 3.59575C13.6029 3.59735 13.5953 3.60171 13.5894 3.60824C13.5836 3.61477 13.5797 3.62316 13.5782 3.63225C13.572 3.64752 13.5654 3.66258 13.5585 3.67744C13.5452 3.70561 13.5306 3.73293 13.5146 3.75927C13.4504 3.86352 13.3658 3.95022 13.2671 4.01281C13.1582 4.08105 13.0381 4.1243 12.9139 4.14001C12.7614 4.16208 12.6064 4.14892 12.4587 4.10135C12.4412 4.0955 12.4239 4.08912 12.4067 4.08219C12.4021 4.07951 12.397 4.07802 12.3918 4.07785C12.3866 4.07767 12.3815 4.0788 12.3767 4.08116C12.3685 4.08564 12.3607 4.09131 12.3525 4.09594C12.3215 4.11324 12.2889 4.12656 12.2551 4.13563C12.1824 4.15539 12.1069 4.15957 12.0328 4.14795C11.9681 4.13847 11.9058 4.11438 11.8498 4.07717C11.8244 4.06 11.8009 4.0396 11.7798 4.01639C11.7691 4.00469 11.759 3.99229 11.7497 3.97924C11.74 3.9656 11.7322 3.94427 11.7165 3.93865C11.7017 3.93335 11.6853 3.93114 11.6702 3.92687C11.655 3.92259 11.64 3.91794 11.625 3.91288C11.5957 3.90299 11.5668 3.89162 11.5386 3.87854C11.4849 3.85359 11.4336 3.82256 11.3856 3.78595C11.2925 3.71516 11.2148 3.62222 11.1581 3.51388C11.0262 3.26047 11.0156 2.93019 11.1369 2.66968C11.1453 2.6517 11.1542 2.63405 11.1636 2.61673C11.1681 2.60857 11.1736 2.60069 11.1775 2.59222C11.1841 2.57802 11.1788 2.56314 11.1763 2.5485C11.1685 2.50348 11.1637 2.45787 11.1621 2.41205C11.1535 2.22542 11.2025 2.04112 11.301 1.88961C11.4383 1.67465 11.6586 1.54302 11.8894 1.49857C11.9567 1.48589 12.0248 1.48004 12.093 1.48108C12.1362 1.48158 12.1794 1.48474 12.2223 1.49054C12.2317 1.49256 12.2411 1.49397 12.2507 1.49478C12.26 1.49338 12.2688 1.48922 12.2762 1.48274C12.2926 1.47208 12.3094 1.46211 12.3266 1.45284C12.4612 1.3802 12.6139 1.35463 12.7624 1.36612C13.0013 1.38456 13.2367 1.51609 13.3574 1.75263C13.3839 1.80463 13.404 1.86032 13.4171 1.91824C13.4183 1.92313 13.4207 1.92759 13.4239 1.93118C13.4271 1.93477 13.4312 1.93737 13.4356 1.93872C13.5788 1.97862 13.7114 2.05619 13.8221 2.16489C13.9232 2.26521 13.9989 2.39327 14.0416 2.53627C14.0653 2.61793 14.0774 2.70319 14.0775 2.78899C14.0776 2.82668 14.1304 2.82675 14.1303 2.78897Z" fill="#211715"/>
</g>
<g clip-path="url(#clip2_388_7889)">
<path d="M19.449 2.68976C19.449 3.09786 19.1593 3.45301 18.7142 3.56831C18.6323 3.89435 18.3138 4.14453 17.8833 4.14453C17.6932 4.14453 17.5253 4.09568 17.3899 4.01326C17.3275 4.02242 17.2644 4.02702 17.2013 4.02702C16.5797 4.02702 16.1501 3.60403 16.1501 3.10902C16.15 3.03916 16.1574 2.9695 16.1722 2.90123C16.0789 2.75881 16.0292 2.59222 16.0293 2.42195C16.0293 1.95079 16.3349 1.60461 16.7886 1.51174C16.8763 1.37748 17.0387 1.29556 17.2385 1.29556C17.3581 1.29556 17.462 1.32313 17.5448 1.37223C17.6785 1.32311 17.82 1.29851 17.9624 1.29962C18.418 1.29962 18.7556 1.51336 18.8983 1.84977C19.2426 1.99654 19.449 2.30199 19.449 2.68976Z" fill="#A095C1"/>
<path d="M19.4781 2.68955C19.4777 2.85095 19.4332 3.00917 19.3495 3.14716C19.2629 3.28707 19.1425 3.40292 18.9993 3.48399C18.9122 3.53353 18.8188 3.57132 18.7218 3.59636L18.7422 3.57589C18.6944 3.76377 18.5709 3.92365 18.4086 4.02779C18.2198 4.14902 17.9854 4.19193 17.764 4.16704C17.6265 4.15275 17.4938 4.10885 17.3749 4.03837L17.3974 4.04132C17.117 4.08163 16.8203 4.03847 16.5762 3.88959C16.3766 3.76789 16.2204 3.5777 16.1549 3.35186C16.1134 3.20226 16.1095 3.04471 16.1437 2.89325L16.1466 2.91584C15.9984 2.68713 15.9632 2.4012 16.0381 2.14035C16.0994 1.92865 16.2354 1.74636 16.4208 1.6273C16.5309 1.55764 16.6528 1.50882 16.7805 1.4833L16.763 1.49674C16.8937 1.29894 17.1482 1.23745 17.3715 1.27804C17.4376 1.28982 17.5012 1.31307 17.5593 1.34674L17.5367 1.34379C17.7622 1.25972 18.017 1.24875 18.2512 1.30094C18.4403 1.34309 18.6199 1.43467 18.7538 1.57625C18.8251 1.65174 18.8825 1.73928 18.9233 1.8348L18.9127 1.82428C19.045 1.87976 19.163 1.96448 19.2578 2.07209C19.349 2.17797 19.4141 2.30373 19.448 2.43929C19.4681 2.52117 19.4782 2.60519 19.4781 2.68951C19.4781 2.72724 19.4195 2.72729 19.4194 2.68951C19.4208 2.55081 19.3906 2.41362 19.3312 2.28829C19.2731 2.16974 19.1876 2.06677 19.0817 1.98795C19.0255 1.94648 18.9649 1.91121 18.9012 1.88277C18.8921 1.88117 18.8837 1.87681 18.8772 1.87027C18.8706 1.86374 18.8663 1.85536 18.8647 1.84626C18.8578 1.831 18.8505 1.81593 18.8427 1.80107C18.828 1.77291 18.8117 1.74559 18.794 1.71924C18.7227 1.61499 18.6287 1.5283 18.519 1.4657C18.398 1.39747 18.2646 1.35422 18.1266 1.33851C17.9571 1.31644 17.7849 1.3296 17.6208 1.37717C17.6014 1.38301 17.5821 1.3894 17.563 1.39633C17.5579 1.39901 17.5523 1.40049 17.5465 1.40067C17.5407 1.40085 17.535 1.39971 17.5297 1.39735C17.5205 1.39287 17.5119 1.3872 17.5028 1.38258C17.4684 1.36528 17.4321 1.35196 17.3946 1.34288C17.3138 1.32313 17.2299 1.31895 17.1475 1.33057C17.0757 1.34004 17.0065 1.36413 16.9442 1.40135C16.916 1.41852 16.8899 1.43892 16.8664 1.46212C16.8545 1.47382 16.8434 1.48623 16.833 1.49928C16.8222 1.51292 16.8136 1.53424 16.7961 1.53986C16.7796 1.54516 16.7615 1.54737 16.7446 1.55165C16.7278 1.55592 16.7111 1.56058 16.6945 1.56563C16.6619 1.57553 16.6298 1.5869 16.5984 1.59998C16.5387 1.62493 16.4818 1.65595 16.4284 1.69257C16.325 1.76335 16.2387 1.8563 16.1757 1.96464C16.0292 2.21805 16.0173 2.54832 16.1521 2.80884C16.1614 2.82682 16.1713 2.84447 16.1818 2.86179C16.1868 2.86994 16.1929 2.87782 16.1973 2.8863C16.2046 2.90049 16.1987 2.91538 16.1959 2.93001C16.1872 2.97504 16.1819 3.02065 16.1801 3.06646C16.1706 3.2531 16.225 3.4374 16.3344 3.58891C16.487 3.80387 16.7318 3.93549 16.9883 3.97995C17.063 3.99262 17.1387 3.99847 17.2145 3.99744C17.2625 3.99693 17.3104 3.99377 17.3581 3.98797C17.3685 3.98596 17.3791 3.98454 17.3896 3.98374C17.4 3.98514 17.4098 3.9893 17.4179 3.99578C17.4363 4.00644 17.4549 4.0164 17.474 4.02568C17.6235 4.09831 17.7932 4.12389 17.9582 4.11239C18.2237 4.09395 18.4852 3.96242 18.6193 3.72588C18.6488 3.67389 18.6711 3.61819 18.6857 3.56028C18.687 3.55538 18.6896 3.55092 18.6932 3.54733C18.6968 3.54374 18.7013 3.54115 18.7062 3.5398C18.8654 3.49989 19.0127 3.42232 19.1356 3.31363C19.248 3.2133 19.3322 3.08525 19.3796 2.94225C19.4059 2.86058 19.4194 2.77532 19.4195 2.68953C19.4196 2.65183 19.4782 2.65176 19.4781 2.68955Z" fill="#211715"/>
</g>
<g clip-path="url(#clip3_388_7889)">
<path d="M16.0277 6.61008C16.0277 6.24278 16.2885 5.92315 16.689 5.81938C16.7628 5.52595 17.0494 5.30078 17.4368 5.30078C17.6079 5.30078 17.759 5.34475 17.8809 5.41893C17.9371 5.41068 17.9939 5.40654 18.0507 5.40654C18.6101 5.40654 18.9967 5.78723 18.9967 6.23275C18.9968 6.29561 18.9902 6.35831 18.9769 6.41976C19.0608 6.54793 19.1055 6.69786 19.1055 6.8511C19.1055 7.27515 18.8305 7.58671 18.4221 7.6703C18.3431 7.79112 18.197 7.86486 18.0172 7.86486C17.9095 7.86486 17.8161 7.84004 17.7415 7.79585C17.6212 7.84006 17.4939 7.8622 17.3657 7.8612C16.9557 7.8612 16.6518 7.66883 16.5234 7.36607C16.2135 7.23397 16.0277 6.95907 16.0277 6.61008Z" fill="#F2635F"/>
<path d="M16.0006 6.60929C16.0009 6.46403 16.041 6.32163 16.1163 6.19744C16.1942 6.07152 16.3026 5.96726 16.4314 5.89429C16.5099 5.8497 16.5939 5.8157 16.6813 5.79316L16.6629 5.81158C16.7059 5.64249 16.817 5.4986 16.9631 5.40487C17.1331 5.29576 17.344 5.25715 17.5432 5.27955C17.667 5.29241 17.7865 5.33192 17.8935 5.39535L17.8732 5.39269C18.1255 5.35642 18.3926 5.39526 18.6123 5.52925C18.7919 5.63879 18.9325 5.80996 18.9914 6.01321C19.0288 6.14785 19.0323 6.28965 19.0015 6.42596L18.9989 6.40562C19.1323 6.61146 19.164 6.8688 19.0966 7.10356C19.0414 7.2941 18.919 7.45816 18.7521 7.56531C18.6531 7.62801 18.5433 7.67194 18.4284 7.69491L18.4441 7.68282C18.3265 7.86084 18.0975 7.91617 17.8965 7.87965C17.837 7.86905 17.7798 7.84812 17.7275 7.81782L17.7478 7.82048C17.5449 7.89614 17.3155 7.90601 17.1048 7.85904C16.9346 7.8211 16.773 7.73868 16.6524 7.61126C16.5882 7.54332 16.5366 7.46454 16.4999 7.37857L16.5094 7.38803C16.3904 7.3381 16.2842 7.26185 16.1988 7.165C16.1168 7.06971 16.0582 6.95653 16.0277 6.83452C16.0096 6.76083 16.0005 6.68521 16.0006 6.60932C16.0005 6.57537 16.0533 6.57532 16.0534 6.60932C16.0522 6.73415 16.0793 6.85763 16.1328 6.97043C16.1851 7.07712 16.2621 7.16979 16.3574 7.24072C16.4079 7.27805 16.4624 7.30979 16.5198 7.33539C16.528 7.33683 16.5355 7.34076 16.5414 7.34664C16.5473 7.35252 16.5512 7.36006 16.5526 7.36825C16.5588 7.38199 16.5654 7.39554 16.5724 7.40892C16.5857 7.43427 16.6003 7.45885 16.6163 7.48256C16.6804 7.57639 16.7651 7.65442 16.8638 7.71075C16.9726 7.77216 17.0928 7.81109 17.217 7.82523C17.3695 7.84509 17.5244 7.83325 17.6721 7.79043C17.6896 7.78517 17.707 7.77942 17.7241 7.77319C17.7287 7.77078 17.7338 7.76944 17.739 7.76928C17.7442 7.76912 17.7494 7.77014 17.7541 7.77226C17.7624 7.7763 17.7701 7.7814 17.7783 7.78557C17.8093 7.80114 17.842 7.81312 17.8757 7.82129C17.9485 7.83907 18.0239 7.84283 18.0981 7.83237C18.1628 7.82384 18.225 7.80216 18.281 7.76867C18.3064 7.75321 18.3299 7.73486 18.3511 7.71397C18.3618 7.70344 18.3718 7.69228 18.3812 7.68053C18.3909 7.66826 18.3986 7.64906 18.4143 7.64401C18.4292 7.63924 18.4455 7.63725 18.4607 7.6334C18.4759 7.62955 18.4909 7.62536 18.5059 7.62081C18.5351 7.61191 18.564 7.60168 18.5923 7.5899C18.646 7.56745 18.6973 7.53952 18.7453 7.50657C18.8383 7.44287 18.916 7.35922 18.9727 7.26171C19.1046 7.03364 19.1153 6.73639 18.994 6.50193C18.9856 6.48575 18.9767 6.46986 18.9672 6.45428C18.9628 6.44693 18.9573 6.43984 18.9533 6.43221C18.9467 6.41944 18.952 6.40604 18.9546 6.39287C18.9624 6.35235 18.9671 6.3113 18.9688 6.27007C18.9774 6.10209 18.9284 5.93623 18.8299 5.79987C18.6926 5.6064 18.4723 5.48794 18.2414 5.44793C18.1742 5.43652 18.106 5.43126 18.0378 5.43219C17.9946 5.43264 17.9515 5.43549 17.9086 5.44071C17.8992 5.44252 17.8897 5.4438 17.8802 5.44452C17.8709 5.44326 17.8621 5.43951 17.8547 5.43368C17.8382 5.42409 17.8214 5.41512 17.8042 5.40677C17.6697 5.3414 17.517 5.31838 17.3685 5.32873C17.1295 5.34533 16.8942 5.4637 16.7734 5.67659C16.747 5.72338 16.7269 5.77351 16.7137 5.82563C16.7125 5.83004 16.7102 5.83405 16.707 5.83728C16.7037 5.84052 16.6997 5.84285 16.6953 5.84406C16.552 5.87998 16.4195 5.94979 16.3088 6.04762C16.2076 6.13791 16.1319 6.25316 16.0892 6.38186C16.0655 6.45536 16.0534 6.53209 16.0533 6.60931C16.0532 6.64323 16.0005 6.6433 16.0006 6.60929Z" fill="#211715"/>
</g>
<g clip-path="url(#clip4_388_7889)">
<path d="M11.0249 6.54191C11.0249 6.1899 11.2749 5.88357 11.6588 5.78413C11.7294 5.5029 12.0041 5.28711 12.3754 5.28711C12.5394 5.28711 12.6842 5.32925 12.801 5.40034C12.8549 5.39244 12.9093 5.38847 12.9637 5.38846C13.4998 5.38846 13.8704 5.75331 13.8704 6.18028C13.8705 6.24054 13.8641 6.30063 13.8514 6.35951C13.9318 6.48235 13.9747 6.62604 13.9746 6.7729C13.9746 7.1793 13.711 7.4779 13.3196 7.558C13.244 7.6738 13.1039 7.74447 12.9317 7.74447C12.8284 7.74447 12.7389 7.72068 12.6674 7.67833C12.5521 7.72071 12.4301 7.74192 12.3072 7.74096C11.9143 7.74096 11.623 7.5566 11.5 7.26643C11.203 7.13984 11.0249 6.87638 11.0249 6.54191Z" fill="#7CC67A"/>
<path d="M11 6.54197C11.0004 6.40276 11.0387 6.26629 11.1109 6.14727C11.1856 6.02658 11.2895 5.92666 11.4129 5.85673C11.4881 5.814 11.5686 5.78141 11.6524 5.75981L11.6347 5.77747C11.676 5.61541 11.7825 5.47751 11.9225 5.38768C12.0853 5.28311 12.2875 5.24611 12.4784 5.26758C12.597 5.2799 12.7116 5.31776 12.8141 5.37856L12.7946 5.37601C13.0365 5.34124 13.2924 5.37847 13.503 5.50688C13.6751 5.61186 13.8099 5.77591 13.8664 5.9707C13.9022 6.09974 13.9055 6.23563 13.8761 6.36627L13.8735 6.34678C14.0014 6.54406 14.0317 6.79068 13.9671 7.01567C13.9143 7.19828 13.797 7.35551 13.637 7.4582C13.5421 7.51829 13.4369 7.56039 13.3268 7.58241L13.3419 7.57082C13.2291 7.74143 13.0096 7.79446 12.817 7.75946C12.76 7.7493 12.7052 7.72924 12.655 7.7002L12.6745 7.70275C12.4801 7.77526 12.2602 7.78472 12.0582 7.7397C11.8951 7.70335 11.7402 7.62436 11.6247 7.50224C11.5632 7.43713 11.5137 7.36162 11.4786 7.27923L11.4876 7.2883C11.3736 7.24045 11.2718 7.16737 11.19 7.07455C11.1114 6.98323 11.0552 6.87476 11.026 6.75783C11.0086 6.6872 10.9999 6.61473 11 6.542C11 6.50946 11.0505 6.50942 11.0506 6.542C11.0495 6.66164 11.0755 6.77997 11.1267 6.88808C11.1768 6.99033 11.2506 7.07914 11.3419 7.14713C11.3904 7.1829 11.4426 7.21332 11.4976 7.23785C11.5055 7.23923 11.5127 7.24299 11.5183 7.24863C11.524 7.25426 11.5277 7.2615 11.5291 7.26934C11.535 7.28251 11.5413 7.2955 11.548 7.30832C11.5607 7.33261 11.5748 7.35618 11.5901 7.3789C11.6516 7.46882 11.7327 7.5436 11.8273 7.59759C11.9316 7.65644 12.0467 7.69375 12.1658 7.7073C12.3119 7.72634 12.4604 7.71498 12.602 7.67396C12.6188 7.66891 12.6354 7.6634 12.6518 7.65743C12.6562 7.65512 12.6611 7.65383 12.6661 7.65368C12.6711 7.65353 12.676 7.65451 12.6806 7.65654C12.6885 7.66041 12.6959 7.6653 12.7038 7.66929C12.7335 7.68421 12.7648 7.6957 12.7971 7.70353C12.8668 7.72057 12.9391 7.72417 13.0102 7.71415C13.0722 7.70597 13.1319 7.6852 13.1856 7.6531C13.2099 7.63828 13.2324 7.62069 13.2527 7.60068C13.2629 7.59059 13.2726 7.57988 13.2815 7.56863C13.2908 7.55686 13.2982 7.53847 13.3133 7.53362C13.3275 7.52905 13.3432 7.52714 13.3577 7.52346C13.3723 7.51977 13.3867 7.51576 13.401 7.51139C13.429 7.50286 13.4568 7.49305 13.4838 7.48177C13.5353 7.46025 13.5845 7.43349 13.6305 7.40191C13.7197 7.34085 13.7941 7.26069 13.8484 7.16724C13.9749 6.94866 13.9851 6.66378 13.8688 6.43908C13.8608 6.42357 13.8522 6.40835 13.8432 6.39341C13.8389 6.38637 13.8336 6.37958 13.8299 6.37227C13.8235 6.36002 13.8286 6.34718 13.8311 6.33456C13.8385 6.29573 13.8431 6.25638 13.8447 6.21687C13.8529 6.05589 13.8059 5.89692 13.7116 5.76624C13.5799 5.58083 13.3688 5.46729 13.1476 5.42895C13.0831 5.41802 13.0178 5.41297 12.9525 5.41386C12.9111 5.4143 12.8697 5.41702 12.8286 5.42202C12.8196 5.42377 12.8105 5.42499 12.8014 5.42568C12.7924 5.42447 12.784 5.42088 12.777 5.41529C12.7612 5.4061 12.7451 5.3975 12.7286 5.3895C12.5997 5.32685 12.4533 5.30479 12.311 5.31471C12.082 5.33062 11.8564 5.44406 11.7407 5.64809C11.7153 5.69294 11.6961 5.74098 11.6835 5.79093C11.6823 5.79515 11.6801 5.799 11.677 5.8021C11.6739 5.80519 11.67 5.80743 11.6658 5.8086C11.5285 5.84302 11.4015 5.90992 11.2954 6.00368C11.1984 6.09021 11.1259 6.20066 11.085 6.32401C11.0623 6.39445 11.0507 6.46799 11.0506 6.54199C11.0505 6.5745 10.9999 6.57456 11 6.54197Z" fill="#211715"/>
</g>
</g>
<defs>
<clipPath id="clip0_388_7889">
<rect width="30" height="30" fill="white"/>
</clipPath>
<clipPath id="clip1_388_7889">
<rect width="3.13029" height="3.4781" fill="white" transform="translate(11 1)"/>
</clipPath>
<clipPath id="clip2_388_7889">
<rect width="3.4781" height="3.4781" fill="white" transform="matrix(1 0 0 -1 16 4.47852)"/>
</clipPath>
<clipPath id="clip3_388_7889">
<rect width="3.13029" height="3.13029" fill="white" transform="matrix(-1 0 0 1 19.1309 5)"/>
</clipPath>
<clipPath id="clip4_388_7889">
<rect width="3" height="3" fill="white" transform="matrix(-1 0 0 1 14 5)"/>
</clipPath>
</defs>
</svg>
