<svg width="52" height="52" viewBox="0 0 52 52" fill="none" xmlns="http://www.w3.org/2000/svg">
<rect width="52" height="52" rx="12" fill="#E4EDD8"/>
<path d="M24.6996 19.2444C23.2822 18.5543 21.7261 18.1969 20.1496 18.1992C18.5181 18.1992 16.9737 18.5762 15.5996 19.2444V32.2444C17.017 31.5544 18.5732 31.1969 20.1496 31.1992C22.3193 31.1992 24.333 31.8622 25.9996 32.9997C27.7235 31.8235 29.7627 31.1959 31.8496 31.1992C33.4811 31.1992 35.0255 31.5762 36.3996 32.2444V19.2444C34.9822 18.5543 33.426 18.1969 31.8496 18.1992C30.2181 18.1992 28.6737 18.5762 27.2996 19.2444V28.5992C27.2996 28.944 27.1626 29.2747 26.9188 29.5185C26.6751 29.7623 26.3444 29.8992 25.9996 29.8992C25.6548 29.8992 25.3242 29.7623 25.0804 29.5185C24.8366 29.2747 24.6996 28.944 24.6996 28.5992V19.2444Z" fill="#55A434"/>
</svg>
